<?xml version="1.0" encoding="UTF-8" standalone="no"?>
<svg
   xmlns:dc="http://purl.org/dc/elements/1.1/"
   xmlns:cc="http://creativecommons.org/ns#"
   xmlns:rdf="http://www.w3.org/1999/02/22-rdf-syntax-ns#"
   xmlns:svg="http://www.w3.org/2000/svg"
   xmlns="http://www.w3.org/2000/svg"
   xmlns:sodipodi="http://sodipodi.sourceforge.net/DTD/sodipodi-0.dtd"
   xmlns:inkscape="http://www.inkscape.org/namespaces/inkscape"
   height="51.200001"
   width="51.200001"
   viewBox="0 0 48 48"
   id="svg2"
   version="1.1"
   inkscape:version="0.92.0 r"
   sodipodi:docname="application-archive.svg">
  <metadata
     id="metadata16">
    <rdf:RDF>
      <cc:Work
         rdf:about="">
        <dc:format>image/svg+xml</dc:format>
        <dc:type
           rdf:resource="http://purl.org/dc/dcmitype/StillImage" />
        <dc:title />
      </cc:Work>
    </rdf:RDF>
  </metadata>
  <defs
     id="defs14">
    <filter
       inkscape:collect="always"
       style="color-interpolation-filters:sRGB"
       id="filter4201"
       x="-0.059999999"
       width="1.12"
       y="-0.059999999"
       height="1.12">
      <feGaussianBlur
         inkscape:collect="always"
         stdDeviation="0.2826087"
         id="feGaussianBlur4203" />
    </filter>
  </defs>
  <sodipodi:namedview
     pagecolor="#ffffff"
     bordercolor="#666666"
     borderopacity="1"
     objecttolerance="10"
     gridtolerance="10"
     guidetolerance="10"
     inkscape:pageopacity="0"
     inkscape:pageshadow="2"
     inkscape:window-width="959"
     inkscape:window-height="845"
     id="namedview12"
     showgrid="false"
     inkscape:zoom="7.0064554"
     inkscape:cx="22.47371"
     inkscape:cy="17.080233"
     inkscape:window-x="297"
     inkscape:window-y="22"
     inkscape:window-maximized="0"
     inkscape:current-layer="svg2" />
  <path
     d="m 9.8231075,4.2494495 c -0.8944343,0 -1.73913,0.8446957 -1.73913,1.7391304 V 42.510319 c 0,0.844721 0.8944348,1.73913 1.73913,1.73913 H 37.649195 c 0.844722,0 1.739131,-0.894435 1.739131,-1.73913 V 15.553797 L 28.083978,4.2494495 Z"
     id="path4"
     inkscape:connector-curvature="0"
     style="fill:#808080;fill-opacity:1;stroke-width:0.86956519" />
  <path
     d="M 27.933414,4.4288114 39.237762,15.733159 h -9.565218 c -0.844721,0 -1.73913,-0.894435 -1.73913,-1.739131 z"
     id="path8-3"
     inkscape:connector-curvature="0"
     style="fill:#5b5b5b;fill-opacity:0.39200003;stroke-width:0.86956519;filter:url(#filter4201)" />
  <path
     d="M 28.083978,4.2494495 39.388326,15.553797 h -9.565218 c -0.844721,0 -1.73913,-0.894435 -1.73913,-1.739131 z"
     id="path8"
     inkscape:connector-curvature="0"
     style="fill:#b3b3b3;fill-opacity:1;stroke-width:0.86956519" />
  <path
     style="fill:#ffffff;stroke-width:0.86956519"
     d="m 15.0405,4.2494495 v 3.478261 h 3.478261 V 11.205971 H 15.0405 v 3.478261 h 3.478261 v 3.47826 H 15.0405 v 3.478261 h 3.478261 v 3.478261 1.739131 H 15.0405 v 6.956521 h 6.956521 v -6.956521 h -3.47826 v -1.739131 h 3.47826 v -3.478261 h -3.47826 v -3.478261 h 3.47826 v -3.47826 h -3.47826 v -3.478261 h 3.47826 V 7.7277105 h -3.47826 v -3.478261 z"
     id="path10" />
</svg>
