<?xml version="1.0" encoding="UTF-8" standalone="no"?>
<svg
   xmlns:dc="http://purl.org/dc/elements/1.1/"
   xmlns:cc="http://creativecommons.org/ns#"
   xmlns:rdf="http://www.w3.org/1999/02/22-rdf-syntax-ns#"
   xmlns:svg="http://www.w3.org/2000/svg"
   xmlns="http://www.w3.org/2000/svg"
   xmlns:sodipodi="http://sodipodi.sourceforge.net/DTD/sodipodi-0.dtd"
   xmlns:inkscape="http://www.inkscape.org/namespaces/inkscape"
   width="51.200001"
   viewBox="0 0 48 48"
   height="51.200001"
   id="svg2"
   version="1.1"
   inkscape:version="0.92.0 r"
   sodipodi:docname="application-presentation.svg">
  <metadata
     id="metadata30">
    <rdf:RDF>
      <cc:Work
         rdf:about="">
        <dc:format>image/svg+xml</dc:format>
        <dc:type
           rdf:resource="http://purl.org/dc/dcmitype/StillImage" />
      </cc:Work>
    </rdf:RDF>
  </metadata>
  <defs
     id="defs28">
    <filter
       height="1.12"
       y="-0.059999999"
       width="1.12"
       x="-0.059999999"
       id="filter4201"
       style="color-interpolation-filters:sRGB"
       inkscape:collect="always">
      <feGaussianBlur
         id="feGaussianBlur4203"
         stdDeviation="0.2826087"
         inkscape:collect="always" />
    </filter>
    <clipPath
       id="clipPath4157"
       clipPathUnits="userSpaceOnUse">
      <path
         style="fill:#f9f8f2;fill-opacity:1;stroke-width:1.00658333"
         inkscape:connector-curvature="0"
         id="path4159"
         d="M 27.642964,3.2951379 40.728548,16.380722 H 29.65613 c -0.977824,0 -2.013166,-1.035372 -2.013166,-2.013167 z" />
    </clipPath>
  </defs>
  <sodipodi:namedview
     pagecolor="#ffffff"
     bordercolor="#666666"
     borderopacity="1"
     objecttolerance="10"
     gridtolerance="10"
     guidetolerance="10"
     inkscape:pageopacity="0"
     inkscape:pageshadow="2"
     inkscape:window-width="959"
     inkscape:window-height="853"
     id="namedview26"
     showgrid="false"
     inkscape:zoom="5.8453225"
     inkscape:cx="13.183367"
     inkscape:cy="12.745746"
     inkscape:window-x="297"
     inkscape:window-y="22"
     inkscape:window-maximized="0"
     inkscape:current-layer="svg2" />
  <path
     d="m 9.797669,4.203584 c -0.8944343,0 -1.73913,0.8446957 -1.73913,1.7391304 V 42.464454 c 0,0.844721 0.8944348,1.73913 1.73913,1.73913 h 27.826087 c 0.844722,0 1.739131,-0.894435 1.739131,-1.73913 V 15.507932 L 28.058539,4.203584 Z"
     id="path4"
     inkscape:connector-curvature="0"
     style="fill:#808080;fill-opacity:1;stroke-width:0.86956519" />
  <path
     d="M 28.248139,4.2710929 39.552487,15.575441 h -9.565218 c -0.844721,0 -1.73913,-0.894435 -1.73913,-1.739131 z"
     id="path8-3"
     inkscape:connector-curvature="0"
     style="fill:#000000;fill-opacity:0.39200003;stroke-width:0.86956519;filter:url(#filter4201)"
     clip-path="url(#clipPath4157)"
     transform="translate(-0.28928697,0.20358399)" />
  <path
     d="m 28.058539,4.203584 11.304348,11.304348 h -9.565218 c -0.844721,0 -1.73913,-0.894435 -1.73913,-1.739131 z"
     id="path8"
     inkscape:connector-curvature="0"
     style="fill:#ff6600;fill-opacity:1;stroke-width:0.86956519" />
  <g
     id="g10"
     transform="matrix(0.86956522,0,0,0.86956522,3.1304347,3.1304348)"
     style="fill:#ffffff">
    <g
       transform="matrix(3.2707,0,0,3.189,1.3846,3.4)"
       id="g12">
      <path
         d="M 3.2456,3.9511 H 5.3858 V 5.519 H 3.2456 Z"
         id="path14"
         inkscape:connector-curvature="0" />
      <path
         d="M 3.2456,6.4598 H 5.3858 V 8.0277 H 3.2456 Z"
         id="path16"
         inkscape:connector-curvature="0" />
      <path
         d="m 3.2456,8.9684 h 7.3378 V 9.59556 H 3.2456 Z"
         id="path18"
         inkscape:connector-curvature="0" />
    </g>
    <g
       transform="matrix(3.2707,0,0,3.189,2.3077,3.4)"
       id="g20">
      <path
         d="m 8.3256,3.9511 v 1.9756 h 1.9756 c 0,-1.0911 -0.88449,-1.9756 -1.9756,-1.9756 z"
         id="path22"
         inkscape:connector-curvature="0" />
      <path
         d="m 8.0433,4.2333 c -1.0911,0 -1.9756,0.88449 -1.9756,1.9756 0,1.09111 0.88449,1.9756 1.9756,1.9756 1.09111,0 1.9756,-0.88449 1.9756,-1.9756 H 8.0433 Z"
         id="path24"
         inkscape:connector-curvature="0" />
    </g>
  </g>
</svg>
