<?xml version="1.0" encoding="UTF-8" standalone="no"?>
<svg
   xmlns:dc="http://purl.org/dc/elements/1.1/"
   xmlns:cc="http://creativecommons.org/ns#"
   xmlns:rdf="http://www.w3.org/1999/02/22-rdf-syntax-ns#"
   xmlns:svg="http://www.w3.org/2000/svg"
   xmlns="http://www.w3.org/2000/svg"
   xmlns:sodipodi="http://sodipodi.sourceforge.net/DTD/sodipodi-0.dtd"
   xmlns:inkscape="http://www.inkscape.org/namespaces/inkscape"
   width="51.200001"
   viewBox="0 0 48 48"
   height="51.200001"
   id="svg2"
   version="1.1"
   inkscape:version="0.92.0 r"
   sodipodi:docname="application-x-apple-diskimage.svg">
  <metadata
     id="metadata16">
    <rdf:RDF>
      <cc:Work
         rdf:about="">
        <dc:format>image/svg+xml</dc:format>
        <dc:type
           rdf:resource="http://purl.org/dc/dcmitype/StillImage" />
      </cc:Work>
    </rdf:RDF>
  </metadata>
  <defs
     id="defs14" />
  <sodipodi:namedview
     pagecolor="#ffffff"
     bordercolor="#666666"
     borderopacity="1"
     objecttolerance="10"
     gridtolerance="10"
     guidetolerance="10"
     inkscape:pageopacity="0"
     inkscape:pageshadow="2"
     inkscape:window-width="960"
     inkscape:window-height="996"
     id="namedview12"
     showgrid="false"
     inkscape:zoom="7.6104602"
     inkscape:cx="37.029447"
     inkscape:cy="33.276393"
     inkscape:window-x="720"
     inkscape:window-y="22"
     inkscape:window-maximized="0"
     inkscape:current-layer="svg2" />
  <path
     d="M 24,4 C 12.954545,4 4,12.954546 4,24 4,35.045455 12.954545,44 24,44 35.045455,44 44,35.045455 44,24 44,12.954546 35.045455,4 24,4 Z m 0,14.545455 c 3.012727,0 5.454545,2.441818 5.454545,5.454545 0,3.012727 -2.441818,5.454545 -5.454545,5.454545 -3.012727,0 -5.454545,-2.441818 -5.454545,-5.454545 0,-3.012727 2.441818,-5.454545 5.454545,-5.454545 z"
     id="path10"
     inkscape:connector-curvature="0"
     style="fill:#b3b3b3;fill-opacity:1;stroke:none;stroke-width:0.25;stroke-miterlimit:4;stroke-dasharray:none;stroke-opacity:1" />
  <path
     style="fill:#808080;fill-opacity:1;stroke:none;stroke-width:0.44277275;stroke-miterlimit:4;stroke-dasharray:none;stroke-opacity:1"
     d="m 24,15.461058 c -4.716017,0 -8.538942,3.822925 -8.538942,8.538942 0,4.716017 3.822925,8.538942 8.538942,8.538942 4.716017,0 8.538942,-3.822925 8.538942,-8.538942 0,-4.716017 -3.822925,-8.538942 -8.538942,-8.538942 z m 0,4.007439 c 2.50236,0 4.531503,2.029143 4.531503,4.531503 0,2.50236 -2.029143,4.531503 -4.531503,4.531503 -2.50236,0 -4.531503,-2.029143 -4.531503,-4.531503 0,-2.50236 2.029143,-4.531503 4.531503,-4.531503 z"
     id="path10-4"
     inkscape:connector-curvature="0" />
</svg>
