<?xml version="1.0" encoding="UTF-8" standalone="no"?>
<svg
   xmlns:dc="http://purl.org/dc/elements/1.1/"
   xmlns:cc="http://creativecommons.org/ns#"
   xmlns:rdf="http://www.w3.org/1999/02/22-rdf-syntax-ns#"
   xmlns:svg="http://www.w3.org/2000/svg"
   xmlns="http://www.w3.org/2000/svg"
   xmlns:sodipodi="http://sodipodi.sourceforge.net/DTD/sodipodi-0.dtd"
   xmlns:inkscape="http://www.inkscape.org/namespaces/inkscape"
   width="51.200001"
   viewBox="0 0 48 48"
   height="51.200001"
   id="svg2"
   version="1.1"
   inkscape:version="0.92.0 r"
   sodipodi:docname="application-software.svg">
  <metadata
     id="metadata16">
    <rdf:RDF>
      <cc:Work
         rdf:about="">
        <dc:format>image/svg+xml</dc:format>
        <dc:type
           rdf:resource="http://purl.org/dc/dcmitype/StillImage" />
      </cc:Work>
    </rdf:RDF>
  </metadata>
  <defs
     id="defs14" />
  <sodipodi:namedview
     pagecolor="#ffffff"
     bordercolor="#666666"
     borderopacity="1"
     objecttolerance="10"
     gridtolerance="10"
     guidetolerance="10"
     inkscape:pageopacity="0"
     inkscape:pageshadow="2"
     inkscape:window-width="1256"
     inkscape:window-height="845"
     id="namedview12"
     showgrid="false"
     inkscape:zoom="9.6041665"
     inkscape:cx="8.5595476"
     inkscape:cy="24"
     inkscape:window-x="0"
     inkscape:window-y="22"
     inkscape:window-maximized="0"
     inkscape:current-layer="svg2" />
  <path
     d="M 6.2857162,4 C 5.1429416,4 4.0000559,5.1428857 4.0000559,6.2856603 V 41.777784 C 4.0000559,42.857148 5.1429416,44 6.2222719,44 H 41.777728 c 1.079364,0 2.222216,-1.142885 2.222216,-2.222216 V 6.2223271 c 0,-1.0793302 -1.14333,-2.2222159 -2.222216,-2.2222159 z"
     id="path4"
     inkscape:connector-curvature="0"
     style="fill:#b3b3b3;fill-opacity:1;stroke-width:1.04609632" />
  <path
     style="fill:#00ccff;fill-opacity:1;stroke-width:1.11110795"
     inkscape:connector-curvature="0"
     id="path10"
     d="M 20.666676,8.444432 V 26.22216 h 6.666648 V 8.444432 Z" />
  <path
     style="fill:#ffffff;fill-opacity:1;stroke-width:1.11110795;opacity:0.2"
     inkscape:connector-curvature="0"
     id="path8"
     d="M 6.2857162,4 C 5.1429416,4 4.0000559,5.1428857 4.0000559,6.2856603 V 17.333296 H 43.999944 V 6.222216 C 43.999944,5.1428857 42.856614,4 41.777728,4 Z" />
  <path
     style="opacity:1;fill:#808080;fill-opacity:1;stroke-width:1.04609632"
     d="m 4,39.777344 v 2 C 4,42.856708 5.1433263,44 6.2226562,44 H 41.777344 C 42.856708,44 44,42.856675 44,41.777344 v -2 C 44,40.856675 42.856708,42 41.777344,42 H 6.2226562 C 5.1433262,42 4,40.856708 4,39.777344 Z"
     id="path4-0"
     inkscape:connector-curvature="0" />
  <path
     style="opacity:1;fill:#e6e6e6;fill-opacity:1;stroke-width:0.82042915"
     d="M 6.2851562,4 C 5.1423812,4 4,4.7026675 4,5.4055772 V 6.6561806 C 4,5.9532715 5.1423812,5.2506033 6.2851562,5.2506033 H 41.777344 C 42.85623,5.2506033 44,5.9538522 44,6.6177375 V 5.3671341 C 44,4.7032482 42.85623,4 41.777344,4 Z"
     id="path4-08"
     inkscape:connector-curvature="0" />
</svg>
