<?xml version="1.0" encoding="UTF-8" standalone="no"?>
<svg
   xmlns:dc="http://purl.org/dc/elements/1.1/"
   xmlns:cc="http://creativecommons.org/ns#"
   xmlns:rdf="http://www.w3.org/1999/02/22-rdf-syntax-ns#"
   xmlns:svg="http://www.w3.org/2000/svg"
   xmlns="http://www.w3.org/2000/svg"
   xmlns:sodipodi="http://sodipodi.sourceforge.net/DTD/sodipodi-0.dtd"
   xmlns:inkscape="http://www.inkscape.org/namespaces/inkscape"
   height="51.200001"
   width="51.200001"
   viewBox="0 0 48 48"
   id="svg2"
   version="1.1"
   inkscape:version="0.92.0 r"
   sodipodi:docname="application-images.svg">
  <metadata
     id="metadata16">
    <rdf:RDF>
      <cc:Work
         rdf:about="">
        <dc:format>image/svg+xml</dc:format>
        <dc:type
           rdf:resource="http://purl.org/dc/dcmitype/StillImage" />
      </cc:Work>
    </rdf:RDF>
  </metadata>
  <defs
     id="defs14">
    <filter
       inkscape:collect="always"
       style="color-interpolation-filters:sRGB"
       id="filter4181"
       x="-0.011373369"
       width="1.0227467"
       y="-0.012699707"
       height="1.0253994">
      <feGaussianBlur
         inkscape:collect="always"
         stdDeviation="0.12699707"
         id="feGaussianBlur4183" />
    </filter>
    <filter
       inkscape:collect="always"
       style="color-interpolation-filters:sRGB"
       id="filter4166"
       x="-0.027319964"
       width="1.0546399"
       y="-0.0213995"
       height="1.042799">
      <feGaussianBlur
         inkscape:collect="always"
         stdDeviation="0.213995"
         id="feGaussianBlur4168" />
    </filter>
  </defs>
  <sodipodi:namedview
     pagecolor="#ffffff"
     bordercolor="#666666"
     borderopacity="1"
     objecttolerance="10"
     gridtolerance="10"
     guidetolerance="10"
     inkscape:pageopacity="0"
     inkscape:pageshadow="2"
     inkscape:window-width="1256"
     inkscape:window-height="845"
     id="namedview12"
     showgrid="false"
     inkscape:zoom="9.1931565"
     inkscape:cx="8.2608612"
     inkscape:cy="33.295662"
     inkscape:window-x="0"
     inkscape:window-y="22"
     inkscape:window-maximized="1"
     inkscape:current-layer="svg2" />
  <path
     style="opacity:1;fill:#ffffff;fill-opacity:1;stroke:none;stroke-width:1.90909088;stroke-linecap:round;stroke-linejoin:round;stroke-miterlimit:4;stroke-dasharray:none;stroke-opacity:0.55"
     d="M 5.8636366,6.8181818 C 4.277182,6.8181818 3,8.0953637 3,9.6818182 V 13.5 34.500001 38.318183 c 0,1.586453 1.277182,2.863635 2.8636366,2.863635 H 42.136364 C 43.722818,41.181818 45,39.904636 45,38.318183 V 34.500001 13.5 9.6818182 C 45,8.0953637 43.722818,6.8181818 42.136364,6.8181818 Z"
     id="rect4177"
     inkscape:connector-curvature="0" />
  <path
     style="opacity:1;fill:#ffffff;fill-opacity:0.2;stroke:none;stroke-width:1.90909088;stroke-linecap:round;stroke-linejoin:round;stroke-miterlimit:4;stroke-dasharray:none;stroke-opacity:0.55"
     d="M 5.8636366,6.8181818 C 4.277182,6.8181818 3,8.0953637 3,9.6818182 V 10.636363 C 3,9.0499091 4.277182,7.7727273 5.8636366,7.7727273 H 42.136364 C 43.722818,7.7727273 45,9.0499091 45,10.636363 V 9.6818182 C 45,8.0953637 43.722818,6.8181818 42.136364,6.8181818 Z"
     id="rect4175"
     inkscape:connector-curvature="0" />
  <path
     id="path4180"
     d="M 5.8636366,41.181818 C 4.277182,41.181818 3,39.904636 3,38.318183 v -0.954546 c 0,1.586454 1.277182,2.863636 2.8636366,2.863636 H 42.136364 C 43.722818,40.227273 45,38.950091 45,37.363637 v 0.954546 c 0,1.586453 -1.277182,2.863635 -2.863636,2.863635 z"
     style="opacity:1;fill:#808080;fill-opacity:0.99256504;stroke:none;stroke-width:1.90909088;stroke-linecap:round;stroke-linejoin:round;stroke-miterlimit:4;stroke-dasharray:none;stroke-opacity:0.55"
     inkscape:connector-curvature="0" />
  <rect
     style="opacity:1;fill:#808080;fill-opacity:1;stroke:none;stroke-width:1.90909088;stroke-linecap:round;stroke-linejoin:round;stroke-miterlimit:4;stroke-dasharray:none;stroke-opacity:0.55"
     id="rect4156"
     width="34.363636"
     height="26.727272"
     x="6.818182"
     y="10.636348" />
  <path
     inkscape:connector-curvature="0"
     style="opacity:1;fill:#000000;fill-opacity:0.2;stroke:none;stroke-width:2;stroke-linecap:round;stroke-linejoin:round;stroke-miterlimit:4;stroke-dasharray:none;stroke-opacity:0.55;filter:url(#filter4181)"
     d="M 6.0000002,12.5 V 13 14.5 38.000001 H 18.798828 l 2,-2 9.5,-9.5 2,-2 -12,-12.000001 z"
     id="rect4162"
     transform="matrix(0.95454545,0,0,0.95454545,1.0909091,1.0909091)" />
  <path
     inkscape:connector-curvature="0"
     style="opacity:1;fill:#b3b3b3;fill-opacity:1;stroke:none;stroke-width:1.90909088;stroke-linecap:round;stroke-linejoin:round;stroke-miterlimit:4;stroke-dasharray:none;stroke-opacity:0.55"
     d="M 6.818182,10.636363 V 37.363637 H 18.080699 L 19.98979,35.454546 29.535245,25.909092 31.444336,24.000001 29.535245,22.09091 19.98979,12.545454 18.080699,10.636363 Z"
     id="rect4164" />
  <path
     inkscape:connector-curvature="0"
     style="opacity:1;fill:#000000;fill-opacity:0.3;stroke:none;stroke-width:2;stroke-linecap:round;stroke-linejoin:round;stroke-miterlimit:4;stroke-dasharray:none;stroke-opacity:0.55;filter:url(#filter4166)"
     d="m 6.0000002,12.5 v 2 23.500001 h 4.7988278 l 2,-2 9.5,-9.5 2,-2 -12,-12.000001 z"
     id="rect4160"
     transform="matrix(0.95454545,0,0,0.95454545,1.0909091,1.0909091)" />
  <path
     inkscape:connector-curvature="0"
     style="opacity:1;fill:#00aa88;fill-opacity:1;stroke:none;stroke-width:1.90909088;stroke-linecap:round;stroke-linejoin:round;stroke-miterlimit:4;stroke-dasharray:none;stroke-opacity:0.55"
     d="m 6.818182,10.636363 v 26.727274 h 3.626154 l 1.909091,-1.909091 9.545454,-9.545454 1.909091,-1.909091 -1.909091,-1.909091 -9.545454,-9.545456 -1.909091,-1.909091 z"
     id="rect4158" />
  <path
     inkscape:connector-curvature="0"
     style="opacity:1;fill:#e6e6e6;fill-opacity:0.99607843;stroke:none;stroke-width:1.90909088;stroke-linecap:round;stroke-linejoin:round;stroke-miterlimit:4;stroke-dasharray:none;stroke-opacity:0.55"
     d="m 41.181818,24.192029 -1.909091,1.90909 -9.353426,9.353427 -1.909091,1.909091 h 1.909091 9.353426 1.909091 v -1.909091 -9.353427 z"
     id="rect4166" />
</svg>
