<?xml version="1.0" encoding="UTF-8" standalone="no"?>
<svg
   xmlns:dc="http://purl.org/dc/elements/1.1/"
   xmlns:cc="http://creativecommons.org/ns#"
   xmlns:rdf="http://www.w3.org/1999/02/22-rdf-syntax-ns#"
   xmlns:svg="http://www.w3.org/2000/svg"
   xmlns="http://www.w3.org/2000/svg"
   xmlns:sodipodi="http://sodipodi.sourceforge.net/DTD/sodipodi-0.dtd"
   xmlns:inkscape="http://www.inkscape.org/namespaces/inkscape"
   height="51.200001"
   width="51.200001"
   version="1.1"
   viewBox="0 0 48 48"
   id="svg2"
   inkscape:version="0.92.0 r"
   sodipodi:docname="application-text-template.svg">
  <metadata
     id="metadata12">
    <rdf:RDF>
      <cc:Work
         rdf:about="">
        <dc:format>image/svg+xml</dc:format>
        <dc:type
           rdf:resource="http://purl.org/dc/dcmitype/StillImage" />
      </cc:Work>
    </rdf:RDF>
  </metadata>
  <defs
     id="defs10">
    <clipPath
       id="clipPath4157"
       clipPathUnits="userSpaceOnUse">
      <path
         style="fill:#f9f8f2;fill-opacity:1;stroke-width:1.00658333"
         inkscape:connector-curvature="0"
         id="path4159"
         d="M 27.642964,3.2951379 40.728548,16.380722 H 29.65613 c -0.977824,0 -2.013166,-1.035372 -2.013166,-2.013167 z" />
    </clipPath>
    <filter
       inkscape:collect="always"
       style="color-interpolation-filters:sRGB"
       id="filter4201"
       x="-0.059999999"
       width="1.12"
       y="-0.059999999"
       height="1.12">
      <feGaussianBlur
         inkscape:collect="always"
         stdDeviation="0.2826087"
         id="feGaussianBlur4203" />
    </filter>
    <clipPath
       clipPathUnits="userSpaceOnUse"
       id="clipPath4157-8">
      <path
         d="M 27.642964,3.2951379 40.728548,16.380722 H 29.65613 c -0.977824,0 -2.013166,-1.035372 -2.013166,-2.013167 z"
         id="path4159-0"
         inkscape:connector-curvature="0"
         style="fill:#f9f8f2;fill-opacity:1;stroke-width:1.00658333" />
    </clipPath>
  </defs>
  <sodipodi:namedview
     pagecolor="#ffffff"
     bordercolor="#666666"
     borderopacity="1"
     objecttolerance="10"
     gridtolerance="10"
     guidetolerance="10"
     inkscape:pageopacity="0"
     inkscape:pageshadow="2"
     inkscape:window-width="1256"
     inkscape:window-height="849"
     id="namedview8"
     showgrid="false"
     inkscape:zoom="5.6568543"
     inkscape:cx="35.313246"
     inkscape:cy="34.012959"
     inkscape:window-x="0"
     inkscape:window-y="22"
     inkscape:window-maximized="1"
     inkscape:current-layer="svg2" />
  <path
     style="fill:#808080;fill-opacity:1;stroke-width:0.86956519"
     d="m 9.796875,4.203125 c -0.1282459,0 -0.2530957,0.0223 -0.3769531,0.054687 C 8.8140894,4.5419357 8.3476562,5.1775946 8.3476562,5.8417969 V 42.363281 c 0,0.451256 0.2584369,0.91236 0.625,1.248047 0.2832152,0.175063 0.5996368,0.28711 0.9121094,0.28711 H 29.400391 v -1.738282 h -3.716797 v -3.478515 h 3.716797 v -3.478516 h -3.716797 v -3.478516 h 3.716797 v -0.86914 -0.869141 -0.871094 -0.86914 h -3.716797 v -0.869141 -0.869141 -0.871093 -0.869141 h 3.716797 v -0.86914 -0.869141 -0.869141 -0.871094 h -3.716797 v -0.86914 -0.869141 -0.86914 -0.871094 h 3.716797 v -0.869141 -1.40039 -0.322266 -0.884766 h -0.876953 -2.839844 v -3.478515 h 2.664062 1.052735 V 7.3769531 H 28.347656 25.683594 V 4.203125 Z m 19.603516,3.1738281 h 1.832031 L 29.400391,5.5449219 Z m 0,3.4785159 v 3.478515 h 3.716797 v -3.478515 z m 3.716797,0 h 1.59375 l -1.59375,-1.5937502 z m -3.716797,6.955078 v 0.871094 0.86914 0.869141 0.86914 h 3.716797 v -0.86914 -0.869141 -0.86914 -0.871094 z m 3.716797,3.478515 v 0.871094 0.869141 0.869141 0.86914 h 0.929687 2.785156 v -3.478516 z m 0,3.478516 h -3.716797 v 0.869141 0.871093 0.869141 0.869141 h 3.716797 v -0.869141 -0.869141 -0.871093 z m -3.716797,6.957031 v 3.478516 h 3.716797 v -3.478516 z m 3.716797,3.478516 v 3.478516 h 3.714843 v -3.478516 z m 0,3.478516 h -3.716797 v 3.478515 h 3.716797 z m 0,3.478515 v 1.738282 h 3.714843 v -1.738282 z m 3.714843,-27.826172 v 1.072266 0.271484 2.132813 h 2.53125 v -2.302735 l -1.173828,-1.173828 z m 0,13.91211 v 3.478515 h 2.53125 v -3.478515 z"
     id="path4"
     inkscape:connector-curvature="0" />
  <path
     style="fill:#000000;fill-opacity:0.39200003;stroke-width:0.86956519;filter:url(#filter4201)"
     clip-path="url(#clipPath4157-8)"
     d="m 29.400391,5.9160156 v 1.4609375 h 1.460937 z m 0,1.4609375 h -1.052735 -0.388672 v 3.4785159 h 0.388672 1.052735 z m 0,3.4785159 v 3.478515 h 3.716797 v -3.478515 z m 3.716797,0 h 1.222656 L 33.117188,9.6328125 Z m -3.716797,3.478515 h -0.876953 -0.527344 c 0.14919,0.646873 0.75755,1.255286 1.404297,1.40625 V 15.541016 15.21875 Z m 7.43164,0 v 1.072266 0.271484 0.101563 h 2.431641 l -1.445313,-1.445313 z"
     id="path8-3"
     inkscape:connector-curvature="0" />
  <path
     style="fill:#b3b3b3;fill-opacity:1;stroke-width:0.86956519"
     d="m 29.400391,5.5449219 v 1.8320312 h 1.832031 z m 0,1.8320312 h -1.052735 -0.289062 v 3.4785159 h 0.289062 1.052735 z m 0,3.4785159 v 3.478515 h 3.716797 v -3.478515 z m 3.716797,0 h 1.59375 l -1.59375,-1.5937502 z m -3.716797,3.478515 H 28.523438 28.1875 c 0.218994,0.50636 0.695625,0.946061 1.212891,1.105469 V 15.21875 Z m 7.43164,0 v 1.072266 0.101562 h 2.53125 l -1.173828,-1.173828 z"
     id="path8"
     inkscape:connector-curvature="0" />
  <path
     style="fill:#ffffff;fill-opacity:1;stroke-width:0.86956525"
     d="m 15.304688,19.652344 v 0.86914 h 10.378906 v -0.101562 -0.767578 z m 14.095703,0 v 0.767578 0.101562 h 3.294921 v -0.86914 z M 15.304688,23.130859 V 24 h 14.095703 v -0.101562 -0.767579 z m 0,3.478516 v 0.869141 h 10.378906 v -0.101563 -0.767578 z m 14.095703,0 v 0.767578 0.101563 h 3.294921 v -0.869141 z m -14.095703,3.478516 v 0.86914 h 14.095703 v -0.101562 -0.767578 z m 0,3.476562 v 0.871094 h 10.273437 v -0.871094 z"
     id="path12"
     inkscape:connector-curvature="0" />
</svg>
