<?xml version="1.0" encoding="UTF-8" standalone="no"?>
<svg
   xmlns:dc="http://purl.org/dc/elements/1.1/"
   xmlns:cc="http://creativecommons.org/ns#"
   xmlns:rdf="http://www.w3.org/1999/02/22-rdf-syntax-ns#"
   xmlns:svg="http://www.w3.org/2000/svg"
   xmlns="http://www.w3.org/2000/svg"
   xmlns:sodipodi="http://sodipodi.sourceforge.net/DTD/sodipodi-0.dtd"
   xmlns:inkscape="http://www.inkscape.org/namespaces/inkscape"
   width="51.200001"
   height="51.200001"
   viewBox="0 0 48 48"
   id="svg2"
   version="1.1"
   inkscape:version="0.92.0 r"
   sodipodi:docname="application-pgp-keys.svg">
  <metadata
     id="metadata14">
    <rdf:RDF>
      <cc:Work
         rdf:about="">
        <dc:format>image/svg+xml</dc:format>
        <dc:type
           rdf:resource="http://purl.org/dc/dcmitype/StillImage" />
        <dc:title />
      </cc:Work>
    </rdf:RDF>
  </metadata>
  <defs
     id="defs12">
    <clipPath
       id="clipPath4157"
       clipPathUnits="userSpaceOnUse">
      <path
         style="fill:#f9f8f2;fill-opacity:1;stroke-width:1.00658333"
         inkscape:connector-curvature="0"
         id="path4159"
         d="M 27.642964,3.2951379 40.728548,16.380722 H 29.65613 c -0.977824,0 -2.013166,-1.035372 -2.013166,-2.013167 z" />
    </clipPath>
    <filter
       height="1.12"
       y="-0.059999999"
       width="1.12"
       x="-0.059999999"
       id="filter4201"
       style="color-interpolation-filters:sRGB"
       inkscape:collect="always">
      <feGaussianBlur
         id="feGaussianBlur4203"
         stdDeviation="0.2826087"
         inkscape:collect="always" />
    </filter>
  </defs>
  <sodipodi:namedview
     pagecolor="#ffffff"
     bordercolor="#666666"
     borderopacity="1"
     objecttolerance="10"
     gridtolerance="10"
     guidetolerance="10"
     inkscape:pageopacity="0"
     inkscape:pageshadow="2"
     inkscape:window-width="960"
     inkscape:window-height="853"
     id="namedview10"
     showgrid="true"
     inkscape:zoom="14.407301"
     inkscape:cx="27.285672"
     inkscape:cy="27.859153"
     inkscape:window-x="0"
     inkscape:window-y="22"
     inkscape:window-maximized="0"
     inkscape:current-layer="svg2">
    <inkscape:grid
       type="xygrid"
       id="grid2991"
       empspacing="5"
       visible="true"
       enabled="true"
       snapvisiblegridlinesonly="true"
       originx="0"
       originy="0"
       spacingx="1"
       spacingy="1" />
  </sodipodi:namedview>
  <g
     id="g4170">
    <path
       style="fill:#808080;fill-opacity:1;stroke-width:0.86956519"
       inkscape:connector-curvature="0"
       id="path4"
       d="m 9.797669,4.203584 c -0.8944343,0 -1.73913,0.8446957 -1.73913,1.7391304 V 42.464454 c 0,0.844721 0.8944348,1.73913 1.73913,1.73913 h 27.826087 c 0.844722,0 1.739131,-0.894435 1.739131,-1.73913 V 15.507932 L 28.058539,4.203584 Z" />
    <path
       transform="translate(-0.28928697,0.20358399)"
       clip-path="url(#clipPath4157)"
       style="fill:#000000;fill-opacity:0.39200003;stroke-width:0.86956519;filter:url(#filter4201)"
       inkscape:connector-curvature="0"
       id="path8-3"
       d="M 28.248139,4.2710929 39.552487,15.575441 h -9.565218 c -0.844721,0 -1.73913,-0.894435 -1.73913,-1.739131 z" />
    <path
       style="fill:#b3b3b3;fill-opacity:1;stroke-width:0.86956519"
       inkscape:connector-curvature="0"
       id="path8"
       d="m 28.058539,4.203584 11.304348,11.304348 h -9.565218 c -0.844721,0 -1.73913,-0.894435 -1.73913,-1.739131 z" />
  </g>
  <path
     style="fill:#ffffff;fill-opacity:1;stroke-width:0.16145833"
     inkscape:connector-curvature="0"
     d="m 28.197842,18.833405 c -2.675114,0 -4.843722,2.013692 -4.843722,4.497696 0,0.776288 0.21245,1.508525 0.585281,2.145814 0.0013,0.0016 -0.0013,0.0072 0,0.0094 l -8.981068,8.339578 v 1.799078 h 1.937489 l 0.64583,-0.599669 v -1.199409 h 1.291661 l 0.645829,-0.599715 h 1.291659 l 0.64583,-0.599688 v -1.199384 l 0.645829,-0.599714 h 1.29166 v -1.199384 l 2.522772,-2.342579 c 0.0025,0.0013 0.0075,-0.0013 0.0102,0 0.686324,0.346199 1.47489,0.543475 2.310863,0.543475 2.675096,0 4.843708,-2.013718 4.843708,-4.497745 v -0.01886 C 33.033063,20.833852 30.867,18.833303 28.197919,18.833303 Z m 0.968746,2.398786 c 0.711753,0 1.289388,0.538464 1.29166,1.199384 0,0.662405 -0.578296,1.199383 -1.29166,1.199383 -0.713365,0 -1.291661,-0.536978 -1.291661,-1.199383 0,-0.662428 0.578296,-1.199384 1.291661,-1.199384 z"
     id="path30-2" />
</svg>
