<?xml version="1.0" encoding="UTF-8" standalone="no"?>
<svg
   xmlns:dc="http://purl.org/dc/elements/1.1/"
   xmlns:cc="http://creativecommons.org/ns#"
   xmlns:rdf="http://www.w3.org/1999/02/22-rdf-syntax-ns#"
   xmlns:svg="http://www.w3.org/2000/svg"
   xmlns="http://www.w3.org/2000/svg"
   xmlns:sodipodi="http://sodipodi.sourceforge.net/DTD/sodipodi-0.dtd"
   xmlns:inkscape="http://www.inkscape.org/namespaces/inkscape"
   width="51.200001"
   height="51.200001"
   viewBox="0 0 48 48"
   version="1.1"
   id="svg2"
   inkscape:version="0.92.0 r"
   sodipodi:docname="application-vnd.insync.link.drive.link.svg">
  <metadata
     id="metadata21">
    <rdf:RDF>
      <cc:Work
         rdf:about="">
        <dc:format>image/svg+xml</dc:format>
        <dc:type
           rdf:resource="http://purl.org/dc/dcmitype/StillImage" />
        <dc:title />
      </cc:Work>
    </rdf:RDF>
  </metadata>
  <defs
     id="defs19">
    <clipPath
       id="clipPath-201045889">
      <g
         transform="translate(0,-1004.3622)"
         id="g17">
        <path
           style="fill:#1890d0"
           inkscape:connector-curvature="0"
           d="m -24,13 c 0,1.105 -0.672,2 -1.5,2 -0.828,0 -1.5,-0.895 -1.5,-2 0,-1.105 0.672,-2 1.5,-2 0.828,0 1.5,0.895 1.5,2 z"
           transform="matrix(15.333333,0,0,11.5,414.99999,878.8622)"
           id="path19" />
      </g>
    </clipPath>
    <clipPath
       clipPathUnits="userSpaceOnUse"
       id="clipPath4157">
      <path
         d="M 27.642964,3.2951379 40.728548,16.380722 H 29.65613 c -0.977824,0 -2.013166,-1.035372 -2.013166,-2.013167 z"
         id="path4159"
         inkscape:connector-curvature="0"
         style="fill:#f9f8f2;fill-opacity:1;stroke-width:1.00658333" />
    </clipPath>
    <filter
       inkscape:collect="always"
       style="color-interpolation-filters:sRGB"
       id="filter4201"
       x="-0.059999999"
       width="1.12"
       y="-0.059999999"
       height="1.12">
      <feGaussianBlur
         inkscape:collect="always"
         stdDeviation="0.2826087"
         id="feGaussianBlur4203" />
    </filter>
  </defs>
  <sodipodi:namedview
     pagecolor="#ffffff"
     bordercolor="#666666"
     borderopacity="1"
     objecttolerance="10"
     gridtolerance="10"
     guidetolerance="10"
     inkscape:pageopacity="0"
     inkscape:pageshadow="2"
     inkscape:window-width="1680"
     inkscape:window-height="996"
     id="namedview17"
     showgrid="true"
     inkscape:zoom="18.208333"
     inkscape:cx="14.718535"
     inkscape:cy="24"
     inkscape:window-x="0"
     inkscape:window-y="22"
     inkscape:window-maximized="1"
     inkscape:current-layer="svg2">
    <inkscape:grid
       type="xygrid"
       id="grid4169"
       originx="0"
       originy="0"
       spacingx="1"
       spacingy="1" />
  </sodipodi:namedview>
  <path
     d="m 9.797671,4.203584 c -0.89444,0 -1.73913,0.8447 -1.73913,1.73913 v 36.52174 c 0,0.84473 0.89443,1.73913 1.73913,1.73913 h 27.82609 c 0.84472,0 1.73913,-0.89443 1.73913,-1.73913 V 15.507934 L 28.058541,4.203584 Z"
     id="path4-8"
     inkscape:connector-curvature="0"
     style="fill:#808080;fill-opacity:1;stroke-width:0.86956519" />
  <path
     d="M 28.248139,4.2710929 39.552487,15.575441 h -9.565218 c -0.844721,0 -1.73913,-0.894435 -1.73913,-1.739131 z"
     id="path8-3"
     inkscape:connector-curvature="0"
     style="fill:#000000;fill-opacity:0.39200003;stroke-width:0.86956519;filter:url(#filter4201)"
     clip-path="url(#clipPath4157)"
     transform="translate(-0.28928897,0.20358399)" />
  <path
     d="m 28.058541,4.203584 11.30435,11.30435 h -9.56522 c -0.84472,0 -1.73913,-0.89443 -1.73913,-1.73913 z"
     id="path8-0"
     inkscape:connector-curvature="0"
     style="fill:#0088aa;fill-opacity:1;stroke-width:0.86956519" />
  <polygon
     id="polygon3475-1"
     transform="matrix(1.4721539e-4,0,0,1.3438523e-4,14.761465,19.479039)"
     style="opacity:1;fill:#ffffff;fill-opacity:1;fill-rule:evenodd"
     points="22194,115341 44385,76894 133156,76894 110963,115341 " />
  <polygon
     id="polygon3477-6"
     transform="matrix(1.4550562e-4,0,0,1.5118261e-4,14.98913,16.895834)"
     style="opacity:1;fill:#ffffff;fill-opacity:1;fill-rule:evenodd"
     points="88772,0 44385,0 88772,76894 133156,76894 " />
  <path
     style="opacity:1;fill:#ffffff;fill-opacity:1;fill-rule:evenodd;stroke-width:0.16145833"
     d="m 20.414062,17.929167 -6.428354,10.366797 3.010047,6.02589 6.259977,-10.967682 z"
     id="polygon3479-9"
     inkscape:connector-curvature="0"
     sodipodi:nodetypes="ccccc" />
</svg>
