<?xml version="1.0" encoding="UTF-8" standalone="no"?>
<svg
   xmlns:dc="http://purl.org/dc/elements/1.1/"
   xmlns:cc="http://creativecommons.org/ns#"
   xmlns:rdf="http://www.w3.org/1999/02/22-rdf-syntax-ns#"
   xmlns:svg="http://www.w3.org/2000/svg"
   xmlns="http://www.w3.org/2000/svg"
   xmlns:sodipodi="http://sodipodi.sourceforge.net/DTD/sodipodi-0.dtd"
   xmlns:inkscape="http://www.inkscape.org/namespaces/inkscape"
   width="51.200001"
   viewBox="0 0 48 48"
   height="51.200001"
   id="svg2"
   version="1.1"
   inkscape:version="0.92.0 r"
   sodipodi:docname="application-vnd.openofficeorg.extension.svg">
  <metadata
     id="metadata32">
    <rdf:RDF>
      <cc:Work
         rdf:about="">
        <dc:format>image/svg+xml</dc:format>
        <dc:type
           rdf:resource="http://purl.org/dc/dcmitype/StillImage" />
      </cc:Work>
    </rdf:RDF>
  </metadata>
  <defs
     id="defs30">
    <filter
       height="1.12"
       y="-0.059999999"
       width="1.12"
       x="-0.059999999"
       id="filter4201"
       style="color-interpolation-filters:sRGB"
       inkscape:collect="always">
      <feGaussianBlur
         id="feGaussianBlur4203"
         stdDeviation="0.2826087"
         inkscape:collect="always" />
    </filter>
    <clipPath
       id="clipPath4157"
       clipPathUnits="userSpaceOnUse">
      <path
         style="fill:#f9f8f2;fill-opacity:1;stroke-width:1.00658333"
         inkscape:connector-curvature="0"
         id="path4159"
         d="M 27.642964,3.2951379 40.728548,16.380722 H 29.65613 c -0.977824,0 -2.013166,-1.035372 -2.013166,-2.013167 z" />
    </clipPath>
  </defs>
  <sodipodi:namedview
     pagecolor="#ffffff"
     bordercolor="#666666"
     borderopacity="1"
     objecttolerance="10"
     gridtolerance="10"
     guidetolerance="10"
     inkscape:pageopacity="0"
     inkscape:pageshadow="2"
     inkscape:window-width="720"
     inkscape:window-height="467"
     id="namedview28"
     showgrid="false"
     inkscape:zoom="5.8453225"
     inkscape:cx="19.747921"
     inkscape:cy="31.941426"
     inkscape:window-x="721"
     inkscape:window-y="22"
     inkscape:window-maximized="0"
     inkscape:current-layer="svg2" />
  <path
     d="m 9.797669,4.203584 c -0.8944343,0 -1.73913,0.8446957 -1.73913,1.7391304 V 42.464454 c 0,0.844721 0.8944348,1.73913 1.73913,1.73913 h 27.826087 c 0.844722,0 1.739131,-0.894435 1.739131,-1.73913 V 15.507932 L 28.058539,4.203584 Z"
     id="path4"
     inkscape:connector-curvature="0"
     style="fill:#808080;fill-opacity:1;stroke-width:0.86956519" />
  <path
     d="M 28.248139,4.2710929 39.552487,15.575441 h -9.565218 c -0.844721,0 -1.73913,-0.894435 -1.73913,-1.739131 z"
     id="path8-3"
     inkscape:connector-curvature="0"
     style="fill:#000000;fill-opacity:0.39200003;stroke-width:0.86956519;filter:url(#filter4201)"
     clip-path="url(#clipPath4157)"
     transform="translate(-0.28928697,0.20358399)" />
  <path
     d="m 28.058539,4.203584 11.304348,11.304348 h -9.565218 c -0.844721,0 -1.73913,-0.894435 -1.73913,-1.739131 z"
     id="path8"
     inkscape:connector-curvature="0"
     style="fill:#b3b3b3;fill-opacity:1;stroke-width:0.86956519" />
  <g
     transform="translate(0,2)"
     id="g10"
     style="fill:#ffffff">
    <path
       d="M 18.312,18 C 17.996,18.032 18,18.168 18,18.688 V 24 c 0,-1.1046 0.89543,-2 2,-2 1.10457,0 2,0.89543 2,2 0,1.10457 -0.89543,2 -2,2 -1.10457,0 -2,-0.89543 -2,-2 v 5.25 C 18,30.003 18,30 18.75,30 H 24 c -1.1046,0 -2,-0.89543 -2,-2 0,-1.10457 0.89543,-2 2,-2 1.10457,0 2,0.89543 2,2 0,1.10457 -0.89543,2 -2,2 h 5.25 C 30.003,30 30,30 30,29.25 V 18.75 C 30,17.997 30,18 29.25,18 h -10.5 c -0.1875,0 -0.33203,-0.01083 -0.4375,0 z"
       id="path12"
       inkscape:connector-curvature="0" />
    <path
       d="m 24,18.992 c 0,0.7863 -0.67157,1.4237 -1.5,1.4237 -0.82843,0 -1.5,-0.63742 -1.5,-1.4237 0,-0.7863 0.67157,-1.4237 1.5,-1.4237 0.82843,0 1.5,0.63742 1.5,1.4237 z"
       transform="matrix(1.3333,0,0,1.4048,-6,-10.679)"
       id="path14"
       inkscape:connector-curvature="0" />
    <path
       d="m 24,18.992 c 0,0.7863 -0.67157,1.4237 -1.5,1.4237 -0.82843,0 -1.5,-0.63742 -1.5,-1.4237 0,-0.7863 0.67157,-1.4237 1.5,-1.4237 0.82843,0 1.5,0.63742 1.5,1.4237 z"
       transform="matrix(1.3333,0,0,1.4048,2,-2.6786)"
       id="path16"
       inkscape:connector-curvature="0" />
  </g>
</svg>
