<?xml version="1.0" encoding="UTF-8" standalone="no"?>
<svg
   xmlns:dc="http://purl.org/dc/elements/1.1/"
   xmlns:cc="http://creativecommons.org/ns#"
   xmlns:rdf="http://www.w3.org/1999/02/22-rdf-syntax-ns#"
   xmlns:svg="http://www.w3.org/2000/svg"
   xmlns="http://www.w3.org/2000/svg"
   xmlns:sodipodi="http://sodipodi.sourceforge.net/DTD/sodipodi-0.dtd"
   xmlns:inkscape="http://www.inkscape.org/namespaces/inkscape"
   width="51.200001"
   viewBox="0 0 48 48"
   height="51.200001"
   id="svg2"
   version="1.1"
   inkscape:version="0.92.0 r"
   sodipodi:docname="text-x-copying.svg">
  <metadata
     id="metadata22">
    <rdf:RDF>
      <cc:Work
         rdf:about="">
        <dc:format>image/svg+xml</dc:format>
        <dc:type
           rdf:resource="http://purl.org/dc/dcmitype/StillImage" />
      </cc:Work>
    </rdf:RDF>
  </metadata>
  <defs
     id="defs20">
    <filter
       height="1.12"
       y="-0.059999999"
       width="1.12"
       x="-0.059999999"
       id="filter4201"
       style="color-interpolation-filters:sRGB"
       inkscape:collect="always">
      <feGaussianBlur
         id="feGaussianBlur4203"
         stdDeviation="0.2826087"
         inkscape:collect="always" />
    </filter>
    <clipPath
       id="clipPath4157"
       clipPathUnits="userSpaceOnUse">
      <path
         style="fill:#f9f8f2;fill-opacity:1;stroke-width:1.00658333"
         inkscape:connector-curvature="0"
         id="path4159"
         d="M 27.642964,3.2951379 40.728548,16.380722 H 29.65613 c -0.977824,0 -2.013166,-1.035372 -2.013166,-2.013167 z" />
    </clipPath>
  </defs>
  <sodipodi:namedview
     pagecolor="#ffffff"
     bordercolor="#666666"
     borderopacity="1"
     objecttolerance="10"
     gridtolerance="10"
     guidetolerance="10"
     inkscape:pageopacity="0"
     inkscape:pageshadow="2"
     inkscape:window-width="1680"
     inkscape:window-height="996"
     id="namedview18"
     showgrid="false"
     inkscape:zoom="8.141321"
     inkscape:cx="-14.700715"
     inkscape:cy="24"
     inkscape:window-x="0"
     inkscape:window-y="22"
     inkscape:window-maximized="1"
     inkscape:current-layer="svg2" />
  <g
     id="g4173">
    <path
       style="fill:#808080;fill-opacity:1;stroke-width:0.86956519"
       inkscape:connector-curvature="0"
       id="path4"
       d="m 9.797669,4.203584 c -0.8944343,0 -1.73913,0.8446957 -1.73913,1.7391304 V 42.464454 c 0,0.844721 0.8944348,1.73913 1.73913,1.73913 h 27.826087 c 0.844722,0 1.739131,-0.894435 1.739131,-1.73913 V 15.507932 L 28.058539,4.203584 Z" />
    <path
       transform="translate(-0.28928697,0.20358399)"
       clip-path="url(#clipPath4157)"
       style="fill:#000000;fill-opacity:0.39200003;stroke-width:0.86956519;filter:url(#filter4201)"
       inkscape:connector-curvature="0"
       id="path8-3"
       d="M 28.248139,4.2710929 39.552487,15.575441 h -9.565218 c -0.844721,0 -1.73913,-0.894435 -1.73913,-1.739131 z" />
    <path
       style="fill:#b3b3b3;fill-opacity:1;stroke-width:0.86956519"
       inkscape:connector-curvature="0"
       id="path8"
       d="m 28.058539,4.203584 11.304348,11.304348 h -9.565218 c -0.844721,0 -1.73913,-0.894435 -1.73913,-1.739131 z" />
  </g>
  <path
     style="fill:#ffffff;fill-opacity:1;stroke-width:0.86956525"
     d="m 24,17.042969 c -4.802435,0 -8.695313,3.892878 -8.695312,8.695312 0,4.802435 3.892877,8.697266 8.695312,8.697266 4.802435,0 8.695312,-3.894831 8.695312,-8.697266 0,-4.802434 -3.892877,-8.695312 -8.695312,-8.695312 z m 0,1.740234 c 3.842,0 6.957031,3.113078 6.957031,6.955078 0,3.842 -3.115031,6.957031 -6.957031,6.957031 -3.842,0 -6.957031,-3.115031 -6.957031,-6.957031 0,-3.842 3.115031,-6.955078 6.957031,-6.955078 z m 0.138672,1.738281 c -1.087672,10e-6 -2.037789,0.214802 -2.84961,0.640625 -0.806681,0.421292 -1.425493,1.02811 -1.857421,1.824219 -0.431929,0.791498 -0.648438,1.71612 -0.648438,2.771484 0,1.675623 0.440835,2.961428 1.320313,3.859376 0.879387,0.893287 2.14848,1.339843 3.808593,1.339843 1.155273,0 2.201938,-0.172381 3.138672,-0.519531 v -1.806641 c -1.139629,0.356412 -2.110692,0.535159 -2.912109,0.535157 -1.909895,0 -2.865239,-1.131151 -2.865234,-3.394532 0,-1.087763 0.250413,-1.93466 0.75,-2.541015 0.499586,-0.610965 1.204524,-0.916008 2.115234,-0.916016 0.416364,10e-6 0.839544,0.06695 1.271484,0.201172 0.431895,0.134239 0.86233,0.290191 1.289063,0.470703 l 0.78125,-1.748047 c -1.118846,-0.476737 -2.233342,-0.716787 -3.341797,-0.716797 z"
     id="path12"
     inkscape:connector-curvature="0" />
</svg>
