<?xml version="1.0" encoding="UTF-8" standalone="no"?>
<svg
   xmlns:dc="http://purl.org/dc/elements/1.1/"
   xmlns:cc="http://creativecommons.org/ns#"
   xmlns:rdf="http://www.w3.org/1999/02/22-rdf-syntax-ns#"
   xmlns:svg="http://www.w3.org/2000/svg"
   xmlns="http://www.w3.org/2000/svg"
   xmlns:sodipodi="http://sodipodi.sourceforge.net/DTD/sodipodi-0.dtd"
   xmlns:inkscape="http://www.inkscape.org/namespaces/inkscape"
   width="51.200001"
   viewBox="0 0 48 48"
   height="51.200001"
   id="svg2"
   version="1.1"
   inkscape:version="0.92.0 r"
   sodipodi:docname="text-x-readme.svg">
  <metadata
     id="metadata24">
    <rdf:RDF>
      <cc:Work
         rdf:about="">
        <dc:format>image/svg+xml</dc:format>
        <dc:type
           rdf:resource="http://purl.org/dc/dcmitype/StillImage" />
      </cc:Work>
    </rdf:RDF>
  </metadata>
  <defs
     id="defs22">
    <filter
       height="1.12"
       y="-0.059999999"
       width="1.12"
       x="-0.059999999"
       id="filter4201"
       style="color-interpolation-filters:sRGB"
       inkscape:collect="always">
      <feGaussianBlur
         id="feGaussianBlur4203"
         stdDeviation="0.2826087"
         inkscape:collect="always" />
    </filter>
    <clipPath
       id="clipPath4157"
       clipPathUnits="userSpaceOnUse">
      <path
         style="fill:#f9f8f2;fill-opacity:1;stroke-width:1.00658333"
         inkscape:connector-curvature="0"
         id="path4159"
         d="M 27.642964,3.2951379 40.728548,16.380722 H 29.65613 c -0.977824,0 -2.013166,-1.035372 -2.013166,-2.013167 z" />
    </clipPath>
  </defs>
  <sodipodi:namedview
     pagecolor="#ffffff"
     bordercolor="#666666"
     borderopacity="1"
     objecttolerance="10"
     gridtolerance="10"
     guidetolerance="10"
     inkscape:pageopacity="0"
     inkscape:pageshadow="2"
     inkscape:window-width="1680"
     inkscape:window-height="996"
     id="namedview20"
     showgrid="false"
     inkscape:zoom="8.141321"
     inkscape:cx="2.1039518"
     inkscape:cy="24"
     inkscape:window-x="0"
     inkscape:window-y="22"
     inkscape:window-maximized="1"
     inkscape:current-layer="svg2" />
  <g
     id="g4172">
    <path
       style="fill:#808080;fill-opacity:1;stroke-width:0.86956519"
       inkscape:connector-curvature="0"
       id="path4"
       d="m 9.797669,4.203584 c -0.8944343,0 -1.73913,0.8446957 -1.73913,1.7391304 V 42.464454 c 0,0.844721 0.8944348,1.73913 1.73913,1.73913 h 27.826087 c 0.844722,0 1.739131,-0.894435 1.739131,-1.73913 V 15.507932 L 28.058539,4.203584 Z" />
    <path
       transform="translate(-0.28928697,0.20358399)"
       clip-path="url(#clipPath4157)"
       style="fill:#000000;fill-opacity:0.39200003;stroke-width:0.86956519;filter:url(#filter4201)"
       inkscape:connector-curvature="0"
       id="path8-3"
       d="M 28.248139,4.2710929 39.552487,15.575441 h -9.565218 c -0.844721,0 -1.73913,-0.894435 -1.73913,-1.739131 z" />
    <path
       style="fill:#b3b3b3;fill-opacity:1;stroke-width:0.86956519"
       inkscape:connector-curvature="0"
       id="path8"
       d="m 28.058539,4.203584 11.304348,11.304348 h -9.565218 c -0.844721,0 -1.73913,-0.894435 -1.73913,-1.739131 z" />
  </g>
  <path
     style="fill:#ffffff;fill-opacity:1;stroke-width:0.86956525"
     d="m 24,17.042969 c -4.802435,0 -8.695313,3.892878 -8.695312,8.695312 0,4.802435 3.892877,8.697266 8.695312,8.697266 4.802435,0 8.695312,-3.894831 8.695312,-8.697266 0,-4.802434 -3.892877,-8.695312 -8.695312,-8.695312 z m 0,1.740234 c 3.842,0 6.957031,3.113078 6.957031,6.955078 0,3.842 -3.115031,6.957031 -6.957031,6.957031 -3.842,0 -6.957031,-3.115031 -6.957031,-6.957031 0,-3.842 3.115031,-6.955078 6.957031,-6.955078 z m 0.05078,1.738281 a 1.739087,1.739087 0 0 0 -1.791015,1.738282 1.7392575,1.7392575 0 0 0 3.478515,0 1.739087,1.739087 0 0 0 -1.6875,-1.738282 z m -0.919922,4.347657 c -0.872765,0 -0.86914,-4.26e-4 -0.86914,0.86914 v 4.34961 c 0,0.872765 -4.25e-4,0.86914 0.86914,0.86914 h 1.738282 c 0.872765,0 0.86914,4.25e-4 0.86914,-0.86914 v -4.34961 c 0,-0.872766 4.25e-4,-0.86914 -0.86914,-0.86914 z"
     id="path12"
     inkscape:connector-curvature="0" />
</svg>
