<?xml version="1.0" encoding="UTF-8" standalone="no"?>
<svg
   xmlns:dc="http://purl.org/dc/elements/1.1/"
   xmlns:cc="http://creativecommons.org/ns#"
   xmlns:rdf="http://www.w3.org/1999/02/22-rdf-syntax-ns#"
   xmlns:svg="http://www.w3.org/2000/svg"
   xmlns="http://www.w3.org/2000/svg"
   xmlns:sodipodi="http://sodipodi.sourceforge.net/DTD/sodipodi-0.dtd"
   xmlns:inkscape="http://www.inkscape.org/namespaces/inkscape"
   width="51.200001"
   height="51.200001"
   viewBox="0 0 48 48"
   version="1.1"
   id="svg11"
   inkscape:version="0.92.0 r"
   sodipodi:docname="x-office-contact.svg">
  <metadata
     id="metadata17">
    <rdf:RDF>
      <cc:Work
         rdf:about="">
        <dc:format>image/svg+xml</dc:format>
        <dc:type
           rdf:resource="http://purl.org/dc/dcmitype/StillImage" />
        <dc:title />
      </cc:Work>
    </rdf:RDF>
  </metadata>
  <defs
     id="defs15">
    <clipPath
       clipPathUnits="userSpaceOnUse"
       id="clipPath4157">
      <path
         d="M 27.642964,3.2951379 40.728548,16.380722 H 29.65613 c -0.977824,0 -2.013166,-1.035372 -2.013166,-2.013167 z"
         id="path4159"
         inkscape:connector-curvature="0"
         style="fill:#f9f8f2;fill-opacity:1;stroke-width:1.00658333" />
    </clipPath>
    <filter
       inkscape:collect="always"
       style="color-interpolation-filters:sRGB"
       id="filter4201"
       x="-0.059999999"
       width="1.12"
       y="-0.059999999"
       height="1.12">
      <feGaussianBlur
         inkscape:collect="always"
         stdDeviation="0.2826087"
         id="feGaussianBlur4203" />
    </filter>
  </defs>
  <sodipodi:namedview
     pagecolor="#ffffff"
     bordercolor="#666666"
     borderopacity="1"
     objecttolerance="10"
     gridtolerance="10"
     guidetolerance="10"
     inkscape:pageopacity="0"
     inkscape:pageshadow="2"
     inkscape:window-width="1680"
     inkscape:window-height="996"
     id="namedview13"
     showgrid="false"
     inkscape:zoom="2.015625"
     inkscape:cx="-44.155037"
     inkscape:cy="128"
     inkscape:window-x="0"
     inkscape:window-y="22"
     inkscape:window-maximized="1"
     inkscape:current-layer="svg11" />
  <g
     id="g4506"
     transform="translate(-172.27907,-10.046512)">
    <path
       style="fill:#808080;fill-opacity:1;stroke-width:0.86956525"
       inkscape:connector-curvature="0"
       id="path4"
       d="m 182.07674,14.250095 c -0.89444,0 -1.73913,0.844696 -1.73913,1.739131 v 36.521739 c 0,0.844721 0.89443,1.739131 1.73913,1.739131 h 27.82608 c 0.84472,0 1.73913,-0.894435 1.73913,-1.739131 V 25.554443 L 200.33761,14.250095 Z" />
    <path
       transform="translate(171.98978,10.250095)"
       clip-path="url(#clipPath4157)"
       style="fill:#000000;fill-opacity:0.39200003;stroke-width:0.86956519;filter:url(#filter4201)"
       inkscape:connector-curvature="0"
       id="path8-3"
       d="M 28.248139,4.2710929 39.552487,15.575441 h -9.565218 c -0.844721,0 -1.73913,-0.894435 -1.73913,-1.739131 z" />
    <path
       style="fill:#00aa88;fill-opacity:1;stroke-width:0.86956525"
       inkscape:connector-curvature="0"
       id="path8-36"
       d="m 200.33761,14.250095 11.30434,11.304348 h -9.56521 c -0.84473,0 -1.73913,-0.894435 -1.73913,-1.73913 z" />
  </g>
  <path
     inkscape:connector-curvature="0"
     id="path8"
     d="m 23.137207,18.833333 h 1.725586 c 2.583333,0 3.012207,3.03239 3.012207,3.03239 v 3.012207 c 0,1.016682 -2.15446,3.085367 -2.15446,3.085367 v 1.01416 l 3.446127,1.998047 v 2.030844 l -5.595541,0.03532 h -4.737793 v -2.028321 l 3.446127,-2.030844 v -1.01416 c 0,0 -2.159505,-2.058593 -2.15446,-3.075276 V 21.88086 c 0,0 0.428874,-3.047526 3.012207,-3.047527 z m 0,0"
     style="fill:#ffffff;fill-opacity:1;fill-rule:nonzero;stroke:none;stroke-width:0.16145833" />
</svg>
