<?xml version="1.0" encoding="UTF-8" standalone="no"?>
<!-- Generator: flash2svg, http://dissentgraphics.com/tools/flash2svg -->

<svg
   xmlns:dc="http://purl.org/dc/elements/1.1/"
   xmlns:cc="http://creativecommons.org/ns#"
   xmlns:rdf="http://www.w3.org/1999/02/22-rdf-syntax-ns#"
   xmlns:svg="http://www.w3.org/2000/svg"
   xmlns="http://www.w3.org/2000/svg"
   xmlns:sodipodi="http://sodipodi.sourceforge.net/DTD/sodipodi-0.dtd"
   xmlns:inkscape="http://www.inkscape.org/namespaces/inkscape"
   id="Floppy"
   version="1.1"
   style="image-rendering:optimizeSpeed"
   x="0px"
   y="0px"
   width="546.13336"
   height="546.13336"
   viewBox="0 0 512 512"
   enable-background="new 0 0 1024 1024"
   inkscape:version="0.92.0 r"
   sodipodi:docname="3floppy_unmount.svg">
  <metadata
     id="metadata26">
    <rdf:RDF>
      <cc:Work
         rdf:about="">
        <dc:format>image/svg+xml</dc:format>
        <dc:type
           rdf:resource="http://purl.org/dc/dcmitype/StillImage" />
        <dc:title />
      </cc:Work>
    </rdf:RDF>
  </metadata>
  <sodipodi:namedview
     pagecolor="#ffffff"
     bordercolor="#666666"
     borderopacity="1"
     objecttolerance="10"
     gridtolerance="10"
     guidetolerance="10"
     inkscape:pageopacity="0"
     inkscape:pageshadow="2"
     inkscape:window-width="1680"
     inkscape:window-height="996"
     id="namedview24"
     showgrid="false"
     inkscape:zoom="0.88769531"
     inkscape:cx="-18.523653"
     inkscape:cy="255.68359"
     inkscape:window-x="0"
     inkscape:window-y="22"
     inkscape:window-maximized="1"
     inkscape:current-layer="Floppy" />
  <defs
     transform="matrix(1 0 0 1 0 0) "
     id="defs3" />
  <path
     id="path1"
     d="m 442.33751,82.616285 -51.84,-51.85 h -25.61 V 155.65629 c -0.16,4.86 -2.74,7.27 -7.76,7.27 h -173.58 -76.54 c -5.02,0 -7.599996,-2.41 -7.769996,-7.27 V 30.766285 h -27.33 c -3.57,0 -6.64,1.26 -9.18,3.79 -2.51,2.53 -3.76,5.6 -3.76,9.16 V 457.15629 c 0,0.49 0,0.96 0.1,1.4 0.3,2.97 1.53,5.55 3.69,7.74 2.54,2.53 5.61,3.81 9.18,3.81 h 25.4 v -17.13 -184.36 c 0,-5.18 2.58,-7.78 7.769996,-7.78 h 291.13 c 5.19,0 7.79,2.6 7.79,7.78 v 184.36 17.13 h 25.4 c 3.58,0 6.62,-1.28 9.13,-3.81 2.21,-2.19 3.44,-4.77 3.74,-7.74 0,-0.44 0.1,-0.91 0.1,-1.4 V 82.616285 Z"
     inkscape:connector-curvature="0"
     style="fill:#666666;fill-opacity:1;stroke-width:0.46478" />
  <path
     id="path2"
     d="m 357.12751,163.1586 c 5.02,0 7.6,-2.41 7.76,-7.27 V 30.998595 h -181.34 V 163.1586 Z"
     inkscape:connector-curvature="0"
     style="fill:#ffffff;fill-opacity:1;stroke-width:0.46478" />
  <path
     id="path3"
     d="m 403.99751,264.56479 c 0,-5.77514 -2.6,-8.67386 -7.79,-8.67386 h -291.13 c -5.189996,0 -7.769996,2.89872 -7.769996,8.67386 v 205.5415 H 403.99751 Z"
     inkscape:connector-curvature="0"
     style="fill:#ffffff;fill-opacity:1;stroke-width:0.46478" />
  <path
     id="path4"
     d="M 183.54751,163.1586 V 30.998595 H 99.237514 V 155.8886 c 0.17,4.86 2.749996,7.27 7.769996,7.27 z"
     inkscape:connector-curvature="0"
     style="fill:#333333;fill-opacity:1;stroke-width:0.46478" />
  <g
     id="Calque.__205"
     transform="matrix(0.46478001,0,0,0.46478001,12.467514,15.268595)">
    <g
       id="shape9"
       transform="translate(238.05,606.15)" />
  </g>
  <g
     id="Calque.__206"
     transform="matrix(0.46478001,0,0,0.46478001,12.467514,15.268595)"
     style="fill:#333333;fill-opacity:1">
    <g
       id="shape10"
       style="fill:#333333;fill-opacity:1">
      <path
         id="path6"
         d="m 693.95,110.85 q 0,-16.7 -16.7,-16.7 h -37.9 c -11.15,0 -16.75,5.55 -16.75,16.7 v 136 c 0,11.15 5.6,16.75 16.75,16.75 h 37.9 c 11.15,0 16.7,-5.6 16.7,-16.75 z"
         inkscape:connector-curvature="0"
         style="fill:#333333;fill-opacity:1" />
    </g>
  </g>
  <path
     style="fill:#ffffff;fill-opacity:1"
     d="m 73.486328,45.041016 c -3.090787,0 -4.646484,1.55765 -4.646484,4.648437 v 38.111328 c 0,3.090787 1.555697,4.648438 4.646484,4.648438 h 8.832031 c 3.090787,0 4.646485,-1.557651 4.646485,-4.648438 V 49.689453 c 0,-3.090787 -1.555698,-4.648437 -4.646485,-4.648437 z m 4.601563,376.541014 c -3.067548,0 -5.694242,1.09268 -7.855469,3.25391 -2.161227,2.16122 -3.251953,4.78792 -3.251953,7.85547 0,3.06755 1.090726,5.69228 3.251953,7.85351 2.161227,2.16123 4.787921,3.25391 7.855469,3.25391 3.067548,0 5.694241,-1.09268 7.855468,-3.25391 2.161227,-2.16123 3.251954,-4.78596 3.251953,-7.85351 0,-3.06755 -1.090726,-5.69425 -3.251953,-7.85547 -2.161227,-2.16123 -4.78792,-3.25391 -7.855468,-3.25391 z m 344.587889,0 c -3.06755,0 -5.69424,1.09268 -7.85547,3.25391 -2.16123,2.16122 -3.25195,4.78792 -3.25195,7.85547 0,3.06755 1.09072,5.69228 3.25195,7.85351 2.16123,2.16123 4.78792,3.25391 7.85547,3.25391 3.06755,0 5.69425,-1.09268 7.85547,-3.25391 2.16123,-2.16123 3.25195,-4.78596 3.25195,-7.85351 0,-3.06755 -1.09072,-5.69425 -3.25195,-7.85547 -2.16122,-2.16123 -4.78792,-3.25391 -7.85547,-3.25391 z"
     id="path7"
     inkscape:connector-curvature="0" />
  <path
     style="opacity:0.3;fill:#c9c9c9;fill-opacity:1;stroke-width:0.46478;image-rendering:optimizeSpeed"
     d="m 58.966797,447.15625 v 10 c 0,0.49 -3.81e-4,0.96039 0.09961,1.40039 0.3,2.97 1.529453,5.55024 3.689453,7.74024 2.54,2.52999 5.611641,3.81054 9.181641,3.81054 h 25.369141 0.0293 306.660152 0.0312 25.40039 c 3.58,0 6.61891,-1.28054 9.12891,-3.81054 2.21,-2.19 3.44024,-4.77024 3.74024,-7.74024 0,-0.44 0.0996,-0.91039 0.0996,-1.40039 v -10 c 0,0.49 -0.0996,0.96039 -0.0996,1.40039 -0.3,2.97 -1.53024,5.55024 -3.74024,7.74024 -2.51,2.53 -5.54891,3.81054 -9.12891,3.81054 H 404.02734 403.99609 97.335938 97.306641 71.9375 c -3.57,0 -6.641641,-1.28055 -9.181641,-3.81054 -2.16,-2.19 -3.389453,-4.77024 -3.689453,-7.74024 -0.09999,-0.44 -0.09961,-0.91039 -0.09961,-1.40039 z"
     id="path1-3"
     inkscape:connector-curvature="0" />
  <path
     style="opacity:0.3;fill:#000000;fill-opacity:1;image-rendering:optimizeSpeed"
     d="m 68.839844,81.800781 v 6 c 0,3.090787 1.555697,4.648438 4.646484,4.648438 h 8.832031 c 3.090787,0 4.646485,-1.557651 4.646485,-4.648438 v -6 c 0,3.090787 -1.555705,4.648438 -4.646485,4.648438 h -8.832031 c -3.09079,0 -4.646484,-1.557651 -4.646484,-4.648438 z M 67.375,429.69141 c -0.25658,0.94868 -0.394531,1.94628 -0.394531,3 0,3.06755 1.090726,5.69228 3.251953,7.85351 2.161227,2.16123 4.787921,3.25391 7.855469,3.25391 3.067548,0 5.694241,-1.09268 7.855468,-3.25391 2.161227,-2.16123 3.251955,-4.78596 3.251953,-7.85351 0,-1.05372 -0.137952,-2.05132 -0.394531,-3 -0.49037,1.81251 -1.438587,3.43467 -2.857422,4.85351 -2.16123,2.16123 -4.787918,3.25391 -7.855468,3.25391 -3.06755,0 -5.694239,-1.09268 -7.855469,-3.25391 -1.418841,-1.41884 -2.367054,-3.041 -2.857422,-4.85351 z m 344.58789,0 c -0.25658,0.94868 -0.39453,1.94628 -0.39453,3 0,3.06755 1.09072,5.69228 3.25195,7.85351 2.16123,2.16123 4.78792,3.25391 7.85547,3.25391 3.06755,0 5.69425,-1.09268 7.85547,-3.25391 2.16123,-2.16123 3.25195,-4.78596 3.25195,-7.85351 0,-1.05372 -0.13795,-2.05132 -0.39453,-3 -0.49037,1.81251 -1.43858,3.43467 -2.85742,4.85351 -2.16122,2.16123 -4.78792,3.25391 -7.85547,3.25391 -3.06755,0 -5.69424,-1.09268 -7.85547,-3.25391 -1.41884,-1.41884 -2.36705,-3.041 -2.85742,-4.85351 z"
     id="path7-5"
     inkscape:connector-curvature="0" />
</svg>
