<?xml version="1.0" encoding="UTF-8" standalone="no"?>
<!-- Created with Inkscape (http://www.inkscape.org/) -->

<svg
   xmlns:dc="http://purl.org/dc/elements/1.1/"
   xmlns:cc="http://creativecommons.org/ns#"
   xmlns:rdf="http://www.w3.org/1999/02/22-rdf-syntax-ns#"
   xmlns:svg="http://www.w3.org/2000/svg"
   xmlns="http://www.w3.org/2000/svg"
   xmlns:sodipodi="http://sodipodi.sourceforge.net/DTD/sodipodi-0.dtd"
   xmlns:inkscape="http://www.inkscape.org/namespaces/inkscape"
   width="546.13336"
   height="546.13336"
   viewBox="0 0 512 512.00002"
   id="svg2"
   version="1.1"
   inkscape:version="0.92.0 r"
   sodipodi:docname="network-vpn.svg">
  <defs
     id="defs4">
    <filter
       inkscape:collect="always"
       style="color-interpolation-filters:sRGB"
       id="filter4152"
       x="-0.066865668"
       width="1.1337312"
       y="-0.077988401"
       height="1.1559768">
      <feGaussianBlur
         inkscape:collect="always"
         stdDeviation="12.752166"
         id="feGaussianBlur4154" />
    </filter>
    <filter
       inkscape:collect="always"
       style="color-interpolation-filters:sRGB"
       id="filter4160"
       x="-0.13058792"
       width="1.2611758"
       y="-0.11100023"
       height="1.2220005">
      <feGaussianBlur
         inkscape:collect="always"
         stdDeviation="8.1281682"
         id="feGaussianBlur4162" />
    </filter>
  </defs>
  <sodipodi:namedview
     id="base"
     pagecolor="#9f9f9f"
     bordercolor="#666666"
     borderopacity="1.0"
     inkscape:pageopacity="0"
     inkscape:pageshadow="2"
     inkscape:zoom="0.28311893"
     inkscape:cx="-750.83186"
     inkscape:cy="855.04378"
     inkscape:document-units="px"
     inkscape:current-layer="layer1"
     showgrid="false"
     units="px"
     inkscape:showpageshadow="false"
     borderlayer="true"
     inkscape:window-width="1680"
     inkscape:window-height="996"
     inkscape:window-x="0"
     inkscape:window-y="22"
     inkscape:window-maximized="1"
     showguides="false">
    <inkscape:grid
       type="xygrid"
       id="grid4136"
       originx="0"
       originy="0"
       spacingx="1"
       spacingy="1" />
    <sodipodi:guide
       position="4.9999997,59.000066"
       orientation="54,0"
       id="guide4142"
       inkscape:locked="false" />
    <sodipodi:guide
       position="4.9999997,5.0000685"
       orientation="0,54"
       id="guide4144"
       inkscape:locked="false" />
    <sodipodi:guide
       position="58.999997,5.0000685"
       orientation="-54,0"
       id="guide4146"
       inkscape:locked="false" />
    <sodipodi:guide
       position="58.999997,59.000066"
       orientation="0,-54"
       id="guide4148"
       inkscape:locked="false" />
    <sodipodi:guide
       position="0,64.000066"
       orientation="64,0"
       id="guide4150"
       inkscape:locked="false" />
    <sodipodi:guide
       position="0,6.8749996e-05"
       orientation="0,64"
       id="guide4152"
       inkscape:locked="false" />
    <sodipodi:guide
       position="63.999997,6.8749996e-05"
       orientation="-64,0"
       id="guide4154"
       inkscape:locked="false" />
    <sodipodi:guide
       position="63.999997,64.000066"
       orientation="0,-64"
       id="guide4156"
       inkscape:locked="false" />
    <sodipodi:guide
       position="12.999999,50.999944"
       orientation="38,0"
       id="guide4155"
       inkscape:locked="false" />
    <sodipodi:guide
       position="12.999999,12.999946"
       orientation="0,38"
       id="guide4157"
       inkscape:locked="false" />
    <sodipodi:guide
       position="50.999997,12.999946"
       orientation="-38,0"
       id="guide4159"
       inkscape:locked="false" />
    <sodipodi:guide
       position="50.999997,50.999944"
       orientation="0,-38"
       id="guide4161"
       inkscape:locked="false" />
  </sodipodi:namedview>
  <metadata
     id="metadata7">
    <rdf:RDF>
      <cc:Work
         rdf:about="">
        <dc:format>image/svg+xml</dc:format>
        <dc:type
           rdf:resource="http://purl.org/dc/dcmitype/StillImage" />
        <dc:title />
      </cc:Work>
    </rdf:RDF>
  </metadata>
  <g
     inkscape:label="Capa 1"
     inkscape:groupmode="layer"
     id="layer1"
     transform="translate(0,-610.5196)">
    <path
       inkscape:connector-curvature="0"
       id="path4175"
       d="m 174.41191,975.75803 -16.52401,-16.41455 -32.3216,-0.27171 -32.32159,-0.2717 V 845.33354 731.86692 H 256 418.75529 v 113.46662 113.46653 l -32.32161,0.2717 -32.32159,0.27171 -16.52402,16.41455 -16.524,16.41457 H 256 190.93592 Z"
       style="fill:#808080" />
    <path
       inkscape:connector-curvature="0"
       style="opacity:0.5;fill:#000000;fill-opacity:1;filter:url(#filter4152)"
       d="m 54.501505,674.30352 -6.5,3.0957 c -12.1375,5.7785 -18.24403,14.35863 -20.07227,28.20313 -0.66157,5.0095 -0.91451,58.73487 -0.72265,153.70117 0.28261,139.8905 0.37406,146.20928 2.16992,150.99998 4.05011,10.8045 11.02515,17.579 22.45703,21.8066 5.24273,1.9388 8.10562,2.1198 38.16797,2.4219 17.875005,0.1796 33.596045,0.5692 34.935555,0.8653 1.33951,0.2962 9.02021,6.9901 17.06835,14.8769 12.6768,12.4227 15.22533,14.4725 19.06445,15.3281 6.57505,1.4649 182.29068,1.5325 189.09961,0.072 4.91557,-1.0542 6.2373,-2.0808 19.86328,-15.4336 8.02871,-7.8678 15.6937,-14.5515 17.03321,-14.8515 1.33951,-0.3001 17.96054,-0.6914 36.93554,-0.8711 28.81917,-0.273 35.18374,-0.5927 38.65235,-1.9414 10.09438,-3.9248 16.53276,-10.7226 20.10939,-21.2285 1.587,-4.6616 1.7419,-16.18698 2.0254,-151.54495 0.2,-95.5177 -0.049,-149.17987 -0.7129,-154.20117 -1.838,-13.8976 -7.8864,-22.44328 -19.91603,-28.14258 l -6.65821,-3.15625 h -201.5 -201.499995 z m 43,65 h 158.499995 158.5 v 110.5 110.5 l -31.47656,0.2656 -31.47656,0.2637 -16.0918,15.9863 -16.0918,15.9844 H 256.0015 192.63822 l -16.09179,-15.9844 -16.0918,-15.9863 -31.47656,-0.2637 -31.476565,-0.2656 v -110.5 z"
       id="path4185-6" />
    <path
       style="fill:#ffffff;fill-opacity:1"
       d="m 49.091823,665.0356 -6.674506,3.17881 c -12.463359,5.93364 -18.733828,14.74413 -20.611152,28.96031 -0.67933,5.14399 -0.939068,60.31174 -0.742058,157.82762 0.290198,143.64618 0.384105,150.13456 2.228179,155.05386 4.158845,11.0946 11.321146,18.051 23.059941,22.3921 5.383483,1.9909 8.323232,2.1768 39.192675,2.4869 18.354898,0.1845 34.497998,0.5844 35.873478,0.8886 1.37546,0.3041 9.26238,7.1777 17.52659,15.2763 13.01714,12.7562 15.63409,14.8611 19.57628,15.7396 6.75157,1.5042 187.18468,1.5737 194.17642,0.074 5.04754,-1.0825 6.40475,-2.1366 20.39655,-15.8479 8.24426,-8.079 16.11504,-14.9423 17.49051,-15.2503 1.37547,-0.3082 18.44272,-0.71 37.92715,-0.8945 29.59289,-0.2803 36.12833,-0.6086 39.69006,-1.9935 10.36539,-4.0302 16.97662,-11.0105 20.64925,-21.7985 1.62959,-4.7867 1.78871,-16.62144 2.07977,-155.61343 0.20541,-98.08209 -0.0501,-153.18495 -0.73203,-158.34106 -1.88731,-14.27071 -8.0981,-23.04582 -20.45069,-28.89813 l -6.83697,-3.24099 H 256.00155 49.091823 Z m 44.154433,66.74507 H 256.00155 418.75684 V 845.2473 958.71392 l -32.32163,0.27276 -32.32161,0.27075 -16.52383,16.41552 -16.52381,16.41351 H 256.00155 190.93714 L 174.41332,975.67295 157.8895,959.25743 125.56788,958.98668 93.246256,958.71392 V 845.2473 Z"
       id="path4185"
       inkscape:connector-curvature="0" />
    <path
       style="opacity:0.5;fill:#000000;fill-opacity:1;stroke:#223656;stroke-width:4.39360142;stroke-opacity:1;filter:url(#filter4160)"
       d="m 397.28339,911.93138 c -32.85979,0 -59.3125,26.4522 -59.3125,59.3125 v 28.5586 h -9.87891 c -0.18976,0 -0.37975,0.011 -0.56445,0.029 -0.18466,0.019 -0.36818,0.046 -0.54688,0.082 -0.35864,0.073 -0.70401,0.18152 -1.0332,0.32032 -1.97521,0.8325 -3.35547,2.7834 -3.35547,5.0684 v 3.9043 69.0625 3.9062 c 0,2.6659 1.87813,4.8775 4.38867,5.3887 0.17932,0.036 0.36155,0.063 0.54688,0.082 0,0 0.002,0 0.002,0 0.18532,0.019 0.37208,0.029 0.5625,0.029 h 9.87891 13.17968 92.26563 13.18164 9.87695 c 0,0 0.002,0 0.002,0 0.18975,0 0.37782,-0.011 0.5625,-0.029 0.18533,-0.019 0.36756,-0.045 0.54688,-0.082 0.35865,-0.073 0.70595,-0.1815 1.03516,-0.3203 0.16403,-0.069 0.3251,-0.1463 0.48046,-0.2305 1.40284,-0.7602 2.43315,-2.1127 2.76172,-3.7265 0.073,-0.3587 0.11133,-0.7305 0.11133,-1.1114 v -3.9062 -69.0625 -3.9043 c 0,-2.2844 -1.38113,-4.2355 -3.35547,-5.0684 -0.32868,-0.1384 -0.67517,-0.24742 -1.0332,-0.32032 -0.35803,-0.073 -0.72923,-0.1112 -1.10938,-0.1113 h -0.002 -9.87695 v -28.5586 c 0,-32.8603 -26.45467,-59.3125 -59.31445,-59.3125 z m 0,13.1797 c 25.55772,0 46.13281,20.5747 46.13281,46.1328 v 28.5586 h -92.26563 v -28.5586 c 0,-25.5581 20.5751,-46.1328 46.13282,-46.1328 z"
       id="rect4122-6"
       inkscape:connector-curvature="0"
       transform="matrix(1.3992773,0,0,1.3992773,-174.8604,-424.17423)" />
    <g
       id="g4166"
       transform="matrix(1.3992773,0,0,1.3992773,292.08663,-709.56316)">
      <path
         inkscape:connector-curvature="0"
         id="rect4122"
         d="m 63.577518,1115.8855 c -32.859777,0 -59.3136143,26.4533 -59.3136143,59.3136 v 116.4304 H 17.444708 v -116.4304 c 0,-25.5581 20.575089,-46.1328 46.13281,-46.1328 25.557724,0 46.132812,20.5747 46.132812,46.1328 v 116.4304 h 13.1808 v -116.4304 c 0,-32.8603 -26.453831,-59.3136 -59.313612,-59.3136 z"
         style="fill:#ffffff;fill-opacity:1;stroke:#ffffff;stroke-width:4.39360142;stroke-opacity:1" />
      <rect
         ry="5.4993863"
         rx="5.4993863"
         transform="scale(1,-1)"
         y="-1291.6292"
         x="-11.113716"
         height="87.872025"
         width="149.38248"
         id="rect4118"
         style="fill:#b3b3b3;fill-opacity:1;stroke:none;stroke-width:11.24999905" />
      <path
         inkscape:connector-curvature="0"
         id="path4135"
         d="m 63.577522,1221.3319 a 10.984003,10.984003 0 0 0 -10.984004,10.984 10.984003,10.984003 0 0 0 6.590403,10.0573 v 31.6819 h 8.787203 v -31.6819 a 10.984003,10.984003 0 0 0 6.590398,-10.0573 10.984003,10.984003 0 0 0 -10.984,-10.984 z"
         style="fill:#4d4d4d;fill-opacity:1;stroke:none;stroke-width:3.17499995" />
      <path
         id="rect4118-3"
         d="m -11.113713,1282.2245 v 3.9054 c 0,3.0467 2.4529691,5.4996 5.4996291,5.4996 H 132.76911 c 3.04666,0 5.49963,-2.4529 5.49963,-5.4996 v -3.9054 c 0,3.0467 -2.45297,5.4989 -5.49963,5.4989 H -5.6140839 c -3.04666,0 -5.4996291,-2.4522 -5.4996291,-5.4989 z"
         style="opacity:0.3;fill:#000000;fill-opacity:1;stroke:none;stroke-width:11.24999905"
         inkscape:connector-curvature="0" />
      <path
         id="rect4118-7"
         d="m -5.6140839,1203.7576 c -3.04666,0 -5.4996291,2.4521 -5.4996291,5.4988 v 3.9054 c 0,-3.0466 2.4529691,-5.4988 5.4996291,-5.4988 H 132.76911 c 3.04666,0 5.49963,2.4522 5.49963,5.4988 v -3.9054 c 0,-3.0467 -2.45297,-5.4988 -5.49963,-5.4988 z"
         style="opacity:0.3;fill:#ffffff;fill-opacity:1;stroke:none;stroke-width:11.24999905"
         inkscape:connector-curvature="0" />
    </g>
  </g>
</svg>
