<?xml version="1.0" encoding="UTF-8" standalone="no"?>
<!-- Created with Inkscape (http://www.inkscape.org/) -->

<svg
   xmlns:dc="http://purl.org/dc/elements/1.1/"
   xmlns:cc="http://creativecommons.org/ns#"
   xmlns:rdf="http://www.w3.org/1999/02/22-rdf-syntax-ns#"
   xmlns:svg="http://www.w3.org/2000/svg"
   xmlns="http://www.w3.org/2000/svg"
   xmlns:sodipodi="http://sodipodi.sourceforge.net/DTD/sodipodi-0.dtd"
   xmlns:inkscape="http://www.inkscape.org/namespaces/inkscape"
   width="546.13336"
   height="546.13336"
   viewBox="0 0 512 512.00002"
   id="svg2"
   version="1.1"
   inkscape:version="0.92.0 r"
   sodipodi:docname="network-wired-disconected.svg">
  <defs
     id="defs4" />
  <sodipodi:namedview
     id="base"
     pagecolor="#9f9f9f"
     bordercolor="#666666"
     borderopacity="1.0"
     inkscape:pageopacity="0"
     inkscape:pageshadow="2"
     inkscape:zoom="0.80078125"
     inkscape:cx="-93.024463"
     inkscape:cy="117.66868"
     inkscape:document-units="px"
     inkscape:current-layer="layer1"
     showgrid="false"
     units="px"
     inkscape:showpageshadow="false"
     borderlayer="true"
     inkscape:window-width="1680"
     inkscape:window-height="996"
     inkscape:window-x="0"
     inkscape:window-y="22"
     inkscape:window-maximized="1"
     showguides="false">
    <inkscape:grid
       type="xygrid"
       id="grid4136"
       originx="0"
       originy="0"
       spacingx="1"
       spacingy="1" />
    <sodipodi:guide
       position="4.9999997,59.000066"
       orientation="54,0"
       id="guide4142"
       inkscape:locked="false" />
    <sodipodi:guide
       position="4.9999997,5.0000685"
       orientation="0,54"
       id="guide4144"
       inkscape:locked="false" />
    <sodipodi:guide
       position="58.999997,5.0000685"
       orientation="-54,0"
       id="guide4146"
       inkscape:locked="false" />
    <sodipodi:guide
       position="58.999997,59.000066"
       orientation="0,-54"
       id="guide4148"
       inkscape:locked="false" />
    <sodipodi:guide
       position="0,64.000066"
       orientation="64,0"
       id="guide4150"
       inkscape:locked="false" />
    <sodipodi:guide
       position="0,6.8749996e-05"
       orientation="0,64"
       id="guide4152"
       inkscape:locked="false" />
    <sodipodi:guide
       position="63.999997,6.8749996e-05"
       orientation="-64,0"
       id="guide4154"
       inkscape:locked="false" />
    <sodipodi:guide
       position="63.999997,64.000066"
       orientation="0,-64"
       id="guide4156"
       inkscape:locked="false" />
    <sodipodi:guide
       position="12.999999,50.999944"
       orientation="38,0"
       id="guide4155"
       inkscape:locked="false" />
    <sodipodi:guide
       position="12.999999,12.999946"
       orientation="0,38"
       id="guide4157"
       inkscape:locked="false" />
    <sodipodi:guide
       position="50.999997,12.999946"
       orientation="-38,0"
       id="guide4159"
       inkscape:locked="false" />
    <sodipodi:guide
       position="50.999997,50.999944"
       orientation="0,-38"
       id="guide4161"
       inkscape:locked="false" />
  </sodipodi:namedview>
  <metadata
     id="metadata7">
    <rdf:RDF>
      <cc:Work
         rdf:about="">
        <dc:format>image/svg+xml</dc:format>
        <dc:type
           rdf:resource="http://purl.org/dc/dcmitype/StillImage" />
        <dc:title />
      </cc:Work>
    </rdf:RDF>
  </metadata>
  <g
     inkscape:label="Capa 1"
     inkscape:groupmode="layer"
     id="layer1"
     transform="translate(0,-610.5196)">
    <path
       inkscape:connector-curvature="0"
       id="path4175"
       d="m 174.41191,975.75803 -16.52401,-16.41455 -32.3216,-0.27171 -32.32159,-0.2717 V 845.33354 731.86692 H 256 418.75529 v 113.46662 113.46653 l -32.32161,0.2717 -32.32159,0.27171 -16.52402,16.41455 -16.524,16.41457 H 256 190.93592 Z"
       style="fill:#ffffff;fill-opacity:1" />
    <path
       style="fill:#808080;fill-opacity:1;stroke:none;stroke-opacity:1"
       d="m 49.091823,665.0356 -6.674506,3.17881 c -12.463359,5.93364 -18.733828,14.74413 -20.611152,28.96031 -0.67933,5.14399 -0.939068,60.31174 -0.742058,157.82762 0.290198,143.64618 0.384105,150.13456 2.228179,155.05386 4.158845,11.0946 11.321146,18.051 23.059941,22.3921 5.383483,1.9909 8.323232,2.1768 39.192675,2.4869 18.354898,0.1845 34.497998,0.5844 35.873478,0.8886 1.37546,0.3041 9.26238,7.1777 17.52659,15.2763 13.01714,12.7562 15.63409,14.8611 19.57628,15.7396 6.75157,1.5042 187.18468,1.5737 194.17642,0.074 5.04754,-1.0825 6.40475,-2.1366 20.39655,-15.8479 8.24426,-8.079 16.11504,-14.9423 17.49051,-15.2503 1.37547,-0.3082 18.44272,-0.71 37.92715,-0.8945 29.59289,-0.2803 36.12833,-0.6086 39.69006,-1.9935 10.36539,-4.0302 16.97662,-11.0105 20.64925,-21.7985 1.62959,-4.7867 1.78871,-16.62144 2.07977,-155.61343 0.20541,-98.08209 -0.0501,-153.18495 -0.73203,-158.34106 -1.88731,-14.27071 -8.0981,-23.04582 -20.45069,-28.89813 l -6.83697,-3.24099 H 256.00155 49.091823 Z m 44.154433,66.74507 H 256.00155 418.75684 V 845.2473 958.71392 l -32.32163,0.27276 -32.32161,0.27075 -16.52383,16.41552 -16.52381,16.41351 H 256.00155 190.93714 L 174.41332,975.67295 157.8895,959.25743 125.56788,958.98668 93.246256,958.71392 V 845.2473 Z"
       id="path4185"
       inkscape:connector-curvature="0" />
    <g
       id="g4164"
       transform="matrix(1.8809492,0,0,1.8809492,-230.22077,-743.52189)">
      <g
         transform="matrix(1.763431,1.763431,-1.763431,1.763431,193.07117,-23.152666)"
         id="text4206-3"
         style="font-style:normal;font-weight:normal;font-size:40px;line-height:125%;font-family:sans-serif;letter-spacing:0px;word-spacing:0px;opacity:0.3;fill:#000000;fill-opacity:1;stroke:#000000;stroke-width:1px;stroke-linecap:butt;stroke-linejoin:miter;stroke-opacity:1">
        <path
           style="stroke:#000000;stroke-opacity:1"
           inkscape:connector-curvature="0"
           id="path4211-6"
           d="m 269.40332,218.12187 v 10.87891 h 10.87891 v 3.32031 H 269.40332 V 243.2 h -3.28125 v -10.87891 h -10.87891 v -3.32031 h 10.87891 v -10.87891 z" />
      </g>
      <g
         transform="matrix(1.763431,1.763431,-1.763431,1.763431,193.07117,-29.152666)"
         id="text4206"
         style="font-style:normal;font-weight:normal;font-size:40px;line-height:125%;font-family:sans-serif;letter-spacing:0px;word-spacing:0px;fill:#000000;fill-opacity:1;stroke:#000000;stroke-width:1px;stroke-linecap:butt;stroke-linejoin:miter;stroke-opacity:1">
        <path
           style="stroke:#808080;stroke-opacity:1;fill:#808080"
           inkscape:connector-curvature="0"
           id="path4211"
           d="m 269.40332,218.12187 v 10.87891 h 10.87891 v 3.32031 H 269.40332 V 243.2 h -3.28125 v -10.87891 h -10.87891 v -3.32031 h 10.87891 v -10.87891 z" />
      </g>
    </g>
  </g>
</svg>
