<?xml version="1.0" encoding="UTF-8" standalone="no"?>
<!-- Created with Inkscape (http://www.inkscape.org/) -->

<svg
   xmlns:dc="http://purl.org/dc/elements/1.1/"
   xmlns:cc="http://creativecommons.org/ns#"
   xmlns:rdf="http://www.w3.org/1999/02/22-rdf-syntax-ns#"
   xmlns:svg="http://www.w3.org/2000/svg"
   xmlns="http://www.w3.org/2000/svg"
   xmlns:sodipodi="http://sodipodi.sourceforge.net/DTD/sodipodi-0.dtd"
   xmlns:inkscape="http://www.inkscape.org/namespaces/inkscape"
   id="svg3047"
   version="1.1"
   inkscape:version="0.92.0 r"
   width="546.13336"
   height="546.13336"
   sodipodi:docname="abiword.svg"
   viewBox="0 0 512 512">
  <metadata
     id="metadata3053">
    <rdf:RDF>
      <cc:Work
         rdf:about="">
        <dc:format>image/svg+xml</dc:format>
        <dc:type
           rdf:resource="http://purl.org/dc/dcmitype/StillImage" />
        <dc:title />
      </cc:Work>
    </rdf:RDF>
  </metadata>
  <defs
     id="defs3051" />
  <sodipodi:namedview
     pagecolor="#ffffff"
     bordercolor="#666666"
     borderopacity="1"
     objecttolerance="10"
     gridtolerance="10"
     guidetolerance="10"
     inkscape:pageopacity="0"
     inkscape:pageshadow="2"
     inkscape:window-width="1680"
     inkscape:window-height="996"
     id="namedview3049"
     showgrid="false"
     inkscape:zoom="0.86132812"
     inkscape:cx="-12.190478"
     inkscape:cy="256"
     inkscape:window-x="0"
     inkscape:window-y="22"
     inkscape:window-maximized="1"
     inkscape:current-layer="svg3047"
     inkscape:document-units="px" />
  <path
     style="fill:#808080;fill-opacity:1;stroke-width:0.49148589"
     d="M 58.877658,480.59802 C 52.343222,480.0248 47.189387,477.75561 42.701979,473.47596 30.540471,461.87755 27.837477,435.48977 34.697572,395.33353 48.376753,315.2611 96.638537,199.61917 147.6416,124.7039 183.57001,71.930926 217.78116,41.214557 249.57246,33.185623 c 7.58876,-1.916544 14.80147,-2.613618 19.95179,-1.928246 24.97429,3.323432 50.76984,25.524135 79.02506,68.012083 31.68042,47.63859 65.74393,121.22217 96.14451,207.69032 19.15499,54.48244 33.38559,105.60881 36.01988,129.40856 1.03999,9.39617 -0.70396,14.49288 -5.73052,16.74749 -1.49719,0.67155 -3.15326,1.21373 -3.68018,1.20484 -2.08029,-0.0351 -6.3908,-0.96559 -7.76506,-1.67622 -3.41566,-1.76629 -8.9119,-9.35563 -16.18212,-22.34461 -4.21221,-7.52557 -21.66777,-42.41563 -29.1162,-58.19735 -25.378,-53.77068 -50.95839,-105.11503 -67.53482,-135.55431 -34.32306,-63.02743 -61.68294,-99.67568 -81.54518,-109.22896 -11.42155,-5.49349 -22.47815,-1.00703 -39.53551,16.04236 -18.06059,18.05214 -36.89056,44.89694 -57.73312,82.30662 -7.13615,12.80853 -22.24986,43.24975 -28.45768,57.31794 -19.18134,43.46906 -31.27132,81.75012 -33.56454,106.27694 -0.80703,8.63155 0.33696,15.07413 2.81642,15.86107 1.27494,0.40464 9.37258,-0.5189 14.80391,-1.6884 10.20509,-2.19742 34.88481,-10.42072 61.44661,-20.47407 11.33013,-4.28833 41.55239,-16.41144 65.86173,-26.41923 51.61772,-21.25022 66.82889,-27.0978 86.69801,-33.32898 6.26105,-1.96352 7.87353,-2.2833 12.54003,-2.48685 4.84653,-0.2114 5.56603,-0.13148 7.57578,0.84142 2.93459,1.42058 4.64865,4.01359 4.9349,7.46533 0.18525,2.23354 -0.008,3.07365 -1.31847,5.73586 -2.13936,4.3456 -6.01127,9.02517 -13.28169,16.05221 -21.86609,21.13414 -61.22305,49.313 -99.30404,71.0999 -51.88798,29.68618 -101.19402,48.67946 -144.76535,55.76536 -17.547887,2.85376 -36.690109,3.99116 -48.998952,2.91132 z"
     id="path2982"
     inkscape:connector-curvature="0" />
  <path
     style="opacity:1;fill:#00aad4;fill-opacity:1;stroke-width:0.49148589"
     d="m 265.30078,31 c -4.55709,-0.0033 -10.03694,0.748134 -15.72851,2.185547 -31.7913,8.02893 -66.00323,38.744609 -101.93165,91.517573 -51.003053,74.91528 -99.264172,190.55843 -112.943354,270.63086 -2.092344,12.24774 -3.284887,23.19885 -3.59961,32.85352 -0.001,-0.0272 -0.0029,-0.0529 -0.0039,-0.0801 -0.0037,0.11021 -0.0024,0.21435 -0.0059,0.32422 -0.01558,0.50018 -0.02044,0.98344 -0.03125,1.47656 -0.0224,1.01587 -0.03887,2.0239 -0.04102,3.00977 -0.0011,0.55719 0.0044,1.10279 0.0098,1.65039 0.0086,0.89962 0.0247,1.78845 0.05078,2.66211 0.0086,0.28788 0.0071,0.59189 0.01758,0.87695 0.002,-0.0589 0.0058,-0.12068 0.0078,-0.17969 0.596408,16.80386 4.458552,28.73842 11.59961,35.54883 4.48741,4.27965 9.641341,6.54788 16.175781,7.1211 12.30884,1.07984 31.452113,-0.0564 48.999997,-2.91016 43.57133,-7.0859 92.87765,-26.07946 144.76563,-55.76562 38.08099,-21.78691 77.43664,-49.96547 99.30273,-71.09961 7.25771,-7.01475 11.12981,-11.69013 13.27149,-16.0293 0.004,-0.008 0.008,-0.0158 0.0117,-0.0234 1.31047,-2.66221 1.50359,-3.50279 1.31836,-5.73633 -0.0342,-0.41169 -0.0905,-0.80944 -0.16602,-1.19531 -0.0684,-0.35584 -0.15974,-0.69546 -0.26172,-1.0293 -0.005,-0.0158 -0.007,-0.0331 -0.0117,-0.0488 -2.6e-4,-8.2e-4 -0.002,-0.001 -0.002,-0.002 -0.11003,-0.35324 -0.24152,-0.6921 -0.38867,-1.01953 -0.14443,-0.32137 -0.30873,-0.62827 -0.48828,-0.92383 -0.004,-0.007 -0.007,-0.0146 -0.0117,-0.0215 -0.8393,-1.37238 -2.04399,-2.46873 -3.60547,-3.22461 -1.50731,-0.72968 -2.28967,-0.95665 -4.63086,-0.93555 -0.7804,0.007 -1.73368,0.0409 -2.94531,0.0937 -4.6665,0.20355 -6.27802,0.52281 -12.53907,2.48633 -19.86912,6.23118 -35.08151,12.07986 -86.69921,33.33008 -24.30935,10.00779 -54.5312,22.12964 -65.86133,26.41797 -26.5618,10.05335 -51.24218,18.27719 -61.44727,20.47461 -5.43133,1.1695 -13.52779,2.09409 -14.80273,1.68945 -1.38666,-0.4401 -2.35523,-2.65189 -2.79883,-6.02344 -0.005,0.0523 -0.0127,0.10992 -0.0176,0.16211 -0.80703,8.63155 0.33695,15.07439 2.81641,15.86133 1.27494,0.40464 9.3714,-0.51995 14.80273,-1.68945 10.20508,-2.19742 34.88547,-10.42126 61.44727,-20.47461 11.33013,-4.28833 41.55197,-16.41018 65.86133,-26.41797 51.6177,-21.25022 66.83009,-27.0989 86.69921,-33.33008 6.26105,-1.96352 7.87257,-2.28278 12.53907,-2.48633 4.26259,-0.18593 5.33504,-0.14488 6.89843,0.5293 -2.20025,2.72572 -5.09516,5.80362 -8.98828,9.56641 -21.86609,21.13414 -61.22174,49.31269 -99.30273,71.09961 -51.88798,29.68617 -101.1943,48.67972 -144.76563,55.76562 -17.547882,2.85376 -36.691157,3.99 -48.999997,2.91016 -6.53444,-0.57322 -11.688371,-2.84145 -16.175781,-7.1211 -6.445108,-6.14669 -10.220187,-16.468 -11.335938,-30.77148 0.523511,-8.26691 1.625697,-17.3829 3.332032,-27.3711 13.67918,-80.07243 61.940301,-195.71558 112.943354,-270.63086 35.92841,-52.772964 70.14035,-83.488643 101.93165,-91.517573 7.58876,-1.91655 14.80085,-2.613104 19.95117,-1.927735 24.97429,3.323431 50.77017,25.523776 79.02539,68.011718 31.68042,47.63859 65.74395,121.2213 96.14453,207.68945 17.31343,49.24451 30.55847,95.64479 34.89648,121.69922 -0.98849,2.05072 -2.50249,3.51289 -4.60742,4.45703 -1.49719,0.67155 -3.15277,1.21397 -3.67969,1.20508 -2.08029,-0.0351 -6.39136,-0.96515 -7.76562,-1.67578 -3.41566,-1.76629 -8.91142,-9.35477 -16.18164,-22.34375 -4.21221,-7.52557 -21.66681,-42.4175 -29.11524,-58.19922 -25.378,-53.77068 -50.95872,-105.11345 -67.53515,-135.55273 -34.32306,-63.02743 -61.68268,-99.67719 -81.54492,-109.23047 -3.21231,-1.54504 -6.39717,-2.30026 -9.69336,-2.20898 -8.42361,0.23327 -17.58182,5.9977 -29.8418,18.25195 -18.06059,18.05214 -36.89182,44.89696 -57.73438,82.30664 -7.13614,12.80853 -22.24921,43.25017 -28.45703,57.31836 -19.18134,43.46906 -31.27123,81.75052 -33.56445,106.27734 -0.35569,3.80428 -0.33201,7.18084 0.0176,9.83789 2.32994,-24.533 14.40635,-62.73868 33.54687,-106.11523 6.20782,-14.06819 21.3209,-44.50983 28.45703,-57.31836 20.84256,-37.40968 39.67379,-64.2545 57.73438,-82.30664 17.05736,-17.04939 28.11361,-21.53646 39.53516,-16.04297 19.86224,9.55328 47.22186,46.20304 81.54492,109.23047 16.57643,30.43928 42.15715,81.78205 67.53515,135.55273 7.44843,15.78172 24.90303,50.67365 29.11524,58.19922 7.27022,12.98898 12.76598,20.57746 16.18164,22.34375 1.37426,0.71063 5.68533,1.64068 7.76562,1.67578 0.52692,0.009 2.1825,-0.53353 3.67969,-1.20508 3.04511,-1.36584 4.87846,-3.78305 5.625,-7.55859 0.002,-0.0112 0.004,-0.022 0.006,-0.0332 0.053,-0.27097 0.0988,-0.55082 0.14063,-0.83594 0.008,-0.055 0.0157,-0.11046 0.0234,-0.16602 0.0396,-0.2873 0.0769,-0.57917 0.10547,-0.88086 0.002,-0.0242 0.004,-0.0499 0.006,-0.0742 0.0614,-0.67195 0.0997,-1.37639 0.10742,-2.1211 5e-5,-0.004 -4e-5,-0.008 0,-0.0117 2e-5,-0.002 -2e-5,-0.004 0,-0.006 0.007,-0.70381 -0.0145,-1.44583 -0.0547,-2.21679 -0.008,-0.14642 -0.0162,-0.29641 -0.0254,-0.44532 -0.0481,-0.76962 -0.11051,-1.55966 -0.20313,-2.39648 -0.0278,-0.25113 -0.0751,-0.54945 -0.10547,-0.80664 C 477.75953,411.44589 463.64623,360.86654 444.69336,306.95898 414.29278,220.49083 380.22925,146.90813 348.54883,99.269531 320.29361,56.781591 294.49773,34.581243 269.52344,31.257812 268.23586,31.08647 266.81981,31.001084 265.30078,31 Z"
     id="path2982-0"
     inkscape:connector-curvature="0" />
</svg>
