<?xml version="1.0" encoding="UTF-8" standalone="no"?>
<!-- Created with Inkscape (http://www.inkscape.org/) -->

<svg
   xmlns:dc="http://purl.org/dc/elements/1.1/"
   xmlns:cc="http://creativecommons.org/ns#"
   xmlns:rdf="http://www.w3.org/1999/02/22-rdf-syntax-ns#"
   xmlns:svg="http://www.w3.org/2000/svg"
   xmlns="http://www.w3.org/2000/svg"
   xmlns:sodipodi="http://sodipodi.sourceforge.net/DTD/sodipodi-0.dtd"
   xmlns:inkscape="http://www.inkscape.org/namespaces/inkscape"
   width="546.13336"
   height="546.13336"
   id="svg2"
   version="1.1"
   inkscape:version="0.92.0 r"
   viewBox="0 0 144.49777 144.49779"
   sodipodi:docname="abrt.svg">
  <defs
     id="defs4" />
  <sodipodi:namedview
     id="base"
     pagecolor="#ffffff"
     bordercolor="#666666"
     borderopacity="1.0"
     inkscape:pageopacity="0"
     inkscape:pageshadow="2"
     inkscape:zoom="0.828125"
     inkscape:cx="184.59351"
     inkscape:cy="294.75088"
     inkscape:document-units="px"
     inkscape:current-layer="layer1"
     showgrid="false"
     inkscape:showpageshadow="false"
     borderlayer="true"
     units="px"
     fit-margin-top="0"
     fit-margin-left="0"
     fit-margin-right="0"
     fit-margin-bottom="0"
     showguides="true"
     inkscape:window-width="1680"
     inkscape:window-height="996"
     inkscape:window-x="0"
     inkscape:window-y="22"
     inkscape:window-maximized="1" />
  <metadata
     id="metadata7">
    <rdf:RDF>
      <cc:Work
         rdf:about="">
        <dc:format>image/svg+xml</dc:format>
        <dc:type
           rdf:resource="http://purl.org/dc/dcmitype/StillImage" />
        <dc:title />
      </cc:Work>
    </rdf:RDF>
  </metadata>
  <g
     inkscape:label="Capa 1"
     inkscape:groupmode="layer"
     id="layer1"
     transform="translate(38.119153,-266.89382)">
    <path
       inkscape:connector-curvature="0"
       id="rect4162"
       d="m 34.129738,275.64271 c -19.432132,0 -35.3076718,16.6498 -37.1706518,38.09945 H 71.30039 C 69.437486,292.29251 53.561966,275.64271 34.129738,275.64271 Z m -56.029381,44.02611 c -4.138706,0 -7.470621,3.77619 -7.470621,8.46667 0,4.69048 3.331915,8.46667 7.470621,8.46667 H 90.15912 c 4.138704,0 7.47062,-3.77619 7.47062,-8.46667 0,-4.69048 -3.331916,-8.46667 -7.47062,-8.46667 z m 3.735035,32.17278 c -4.138706,0 -7.470621,3.77619 -7.470621,8.46667 0,4.69048 3.331915,8.46666 7.470621,8.46666 h 33.207964 l -27.597695,18.05782 c -3.584188,2.34524 -4.805034,7.50478 -2.735681,11.5667 2.069352,4.06206 6.622117,5.44571 10.2063026,3.10058 L 28.526633,379.5071 v -19.55436 -8.11114 z m 57.897451,0 v 8.11114 8.82219 10.73217 l 33.61035,21.99293 c 3.584217,2.34513 8.137043,0.96148 10.206305,-3.10058 2.069572,-4.06192 0.848532,-9.22146 -2.735682,-11.5667 L 53.21612,368.77493 h 33.207963 c 4.138516,0 7.47007,-3.77618 7.47007,-8.46666 0,-4.69048 -3.331554,-8.46667 -7.47007,-8.46667 z"
       style="fill:#4d4d4d;fill-opacity:1;stroke-width:3.37968731" />
    <path
       d="m -10.6938,319.67045 v 38.09958 h 0.02241 c -0.0012,0.14391 -0.02241,0.27956 -0.02241,0.42347 0,24.62497 16.1434474,44.44921 36.200262,44.44921 h 3.020392 v -59.26585 h 11.205674 v 59.26585 h 3.020393 c 20.057004,0 36.200261,-19.82424 36.200261,-44.44921 0,-0.14391 -0.02222,-0.27956 -0.02222,-0.42347 h 0.02222 v -38.09958 z"
       id="rect4191"
       inkscape:connector-curvature="0"
       style="fill:#808080;fill-opacity:1;stroke-width:3.37968755" />
  </g>
</svg>
