<?xml version="1.0" encoding="UTF-8" standalone="no"?>
<svg
   xmlns:dc="http://purl.org/dc/elements/1.1/"
   xmlns:cc="http://creativecommons.org/ns#"
   xmlns:rdf="http://www.w3.org/1999/02/22-rdf-syntax-ns#"
   xmlns:svg="http://www.w3.org/2000/svg"
   xmlns="http://www.w3.org/2000/svg"
   xmlns:sodipodi="http://sodipodi.sourceforge.net/DTD/sodipodi-0.dtd"
   xmlns:inkscape="http://www.inkscape.org/namespaces/inkscape"
   height="546.13336"
   width="546.13336"
   viewBox="0 0 512 512"
   id="svg2"
   version="1.1"
   inkscape:version="0.92.0 r"
   sodipodi:docname="accessories-image-viewer.svg">
  <metadata
     id="metadata16">
    <rdf:RDF>
      <cc:Work
         rdf:about="">
        <dc:format>image/svg+xml</dc:format>
        <dc:type
           rdf:resource="http://purl.org/dc/dcmitype/StillImage" />
        <dc:title />
      </cc:Work>
    </rdf:RDF>
  </metadata>
  <defs
     id="defs14">
    <clipPath
       clipPathUnits="userSpaceOnUse"
       id="clipPath4275">
      <path
         style="opacity:1;fill:#424242;fill-opacity:1;stroke:none;stroke-width:21.36363602;stroke-linecap:round;stroke-linejoin:round;stroke-miterlimit:4;stroke-dasharray:none;stroke-opacity:0.55"
         d="m 63.727539,106.45411 v 26.70507 5.3418 16.02148 251.02344 h 40.578131 96.13672 100.43359 147.39648 V 258.14942 106.45411 H 189.76075 104.30567 Z"
         id="path4277"
         inkscape:connector-curvature="0" />
    </clipPath>
    <filter
       inkscape:collect="always"
       style="color-interpolation-filters:sRGB"
       id="filter4166-3"
       x="-0.027319964"
       width="1.0546399"
       y="-0.0213995"
       height="1.042799">
      <feGaussianBlur
         inkscape:collect="always"
         stdDeviation="0.213995"
         id="feGaussianBlur4168-6" />
    </filter>
    <filter
       inkscape:collect="always"
       style="color-interpolation-filters:sRGB"
       id="filter4181-7"
       x="-0.011373369"
       width="1.0227467"
       y="-0.012699707"
       height="1.0253994">
      <feGaussianBlur
         inkscape:collect="always"
         stdDeviation="0.12699707"
         id="feGaussianBlur4183-5" />
    </filter>
  </defs>
  <sodipodi:namedview
     pagecolor="#ffffff"
     bordercolor="#666666"
     borderopacity="1"
     objecttolerance="10"
     gridtolerance="10"
     guidetolerance="10"
     inkscape:pageopacity="0"
     inkscape:pageshadow="2"
     inkscape:window-width="1680"
     inkscape:window-height="996"
     id="namedview12"
     showgrid="false"
     inkscape:zoom="1.1020922"
     inkscape:cx="110.3059"
     inkscape:cy="172.093"
     inkscape:window-x="0"
     inkscape:window-y="22"
     inkscape:window-maximized="1"
     inkscape:current-layer="svg2" />
  <g
     id="g865"
     transform="matrix(11.190469,0,0,11.190469,1169.8456,-437.84951)">
    <path
       inkscape:connector-curvature="0"
       id="rect4177-35"
       d="m -99.799218,44.821826 c -1.586452,0 -2.863632,1.277182 -2.863632,2.863637 v 3.818181 21.000001 3.818181 c 0,1.586454 1.27718,2.863635 2.863632,2.863635 h 36.272727 c 1.586454,0 2.863636,-1.277181 2.863636,-2.863635 V 72.503645 51.503644 47.685463 c 0,-1.586455 -1.277182,-2.863637 -2.863636,-2.863637 z"
       style="opacity:1;fill:#ffffff;fill-opacity:1;stroke:none;stroke-width:1.90909076;stroke-linecap:round;stroke-linejoin:round;stroke-miterlimit:4;stroke-dasharray:none;stroke-opacity:0.55" />
    <path
       inkscape:connector-curvature="0"
       id="rect4175-6"
       d="m -99.799218,44.821826 c -1.586452,0 -2.863632,1.277182 -2.863632,2.863637 v 0.954544 c 0,-1.586453 1.27718,-2.863635 2.863632,-2.863635 h 36.272727 c 1.586454,0 2.863636,1.277182 2.863636,2.863635 v -0.954544 c 0,-1.586455 -1.277182,-2.863637 -2.863636,-2.863637 z"
       style="opacity:1;fill:#ffffff;fill-opacity:0.2;stroke:none;stroke-width:1.90909076;stroke-linecap:round;stroke-linejoin:round;stroke-miterlimit:4;stroke-dasharray:none;stroke-opacity:0.55" />
    <path
       inkscape:connector-curvature="0"
       style="opacity:1;fill:#808080;fill-opacity:0.99256502;stroke:none;stroke-width:1.90909076;stroke-linecap:round;stroke-linejoin:round;stroke-miterlimit:4;stroke-dasharray:none;stroke-opacity:0.55"
       d="m -99.799218,79.185461 c -1.586452,0 -2.863632,-1.277181 -2.863632,-2.863635 v -0.954545 c 0,1.586454 1.27718,2.863635 2.863632,2.863635 h 36.272727 c 1.586454,0 2.863636,-1.277181 2.863636,-2.863635 v 0.954545 c 0,1.586454 -1.277182,2.863635 -2.863636,2.863635 z"
       id="path4180" />
    <rect
       y="48.639992"
       x="-98.844673"
       height="26.72727"
       width="34.363632"
       id="rect4156-2"
       style="opacity:1;fill:#808080;fill-opacity:1;stroke:none;stroke-width:1.90909076;stroke-linecap:round;stroke-linejoin:round;stroke-miterlimit:4;stroke-dasharray:none;stroke-opacity:0.55" />
    <path
       transform="matrix(0.95454539,0,0,0.95454539,-104.57195,39.094554)"
       id="rect4162-9"
       d="M 6.0000002,12.5 V 13 14.5 38.000001 H 18.798828 l 2,-2 9.5,-9.5 2,-2 -12,-12.000001 z"
       style="opacity:1;fill:#000000;fill-opacity:0.2;stroke:none;stroke-width:2;stroke-linecap:round;stroke-linejoin:round;stroke-miterlimit:4;stroke-dasharray:none;stroke-opacity:0.55;filter:url(#filter4181-7)"
       inkscape:connector-curvature="0" />
    <path
       id="rect4164-1"
       d="m -98.844672,48.640007 v 26.727274 h 11.262516 l 1.909091,-1.909091 9.545455,-9.545454 1.909091,-1.909092 -1.909091,-1.90909 -9.545455,-9.545456 -1.909091,-1.909091 z"
       style="opacity:1;fill:#b3b3b3;fill-opacity:1;stroke:none;stroke-width:1.90909076;stroke-linecap:round;stroke-linejoin:round;stroke-miterlimit:4;stroke-dasharray:none;stroke-opacity:0.55"
       inkscape:connector-curvature="0" />
    <path
       transform="matrix(0.95454539,0,0,0.95454539,-104.57195,39.094554)"
       id="rect4160-2"
       d="m 6.0000002,12.5 v 2 23.500001 h 4.7988278 l 2,-2 9.5,-9.5 2,-2 -12,-12.000001 z"
       style="opacity:1;fill:#000000;fill-opacity:0.3;stroke:none;stroke-width:2;stroke-linecap:round;stroke-linejoin:round;stroke-miterlimit:4;stroke-dasharray:none;stroke-opacity:0.55;filter:url(#filter4166-3)"
       inkscape:connector-curvature="0" />
    <path
       id="rect4158-7"
       d="m -98.844672,48.640007 v 26.727274 h 3.626153 l 1.909091,-1.909091 9.545455,-9.545454 1.909091,-1.909092 -1.909091,-1.90909 -9.545455,-9.545456 -1.909091,-1.909091 z"
       style="opacity:1;fill:#00aa88;fill-opacity:1;stroke:none;stroke-width:1.90909076;stroke-linecap:round;stroke-linejoin:round;stroke-miterlimit:4;stroke-dasharray:none;stroke-opacity:0.55"
       inkscape:connector-curvature="0" />
    <path
       id="rect4166-0"
       d="m -64.481037,62.195673 -1.909091,1.90909 -9.353426,9.353427 -1.909091,1.909091 h 1.909091 9.353426 1.909091 V 73.45819 64.104763 Z"
       style="opacity:1;fill:#e6e6e6;fill-opacity:0.99607843;stroke:none;stroke-width:1.90909076;stroke-linecap:round;stroke-linejoin:round;stroke-miterlimit:4;stroke-dasharray:none;stroke-opacity:0.55"
       inkscape:connector-curvature="0" />
  </g>
</svg>
