<?xml version="1.0" encoding="UTF-8" standalone="no"?>
<!-- Created with Inkscape (http://www.inkscape.org/) -->

<svg
   xmlns:dc="http://purl.org/dc/elements/1.1/"
   xmlns:cc="http://creativecommons.org/ns#"
   xmlns:rdf="http://www.w3.org/1999/02/22-rdf-syntax-ns#"
   xmlns:svg="http://www.w3.org/2000/svg"
   xmlns="http://www.w3.org/2000/svg"
   xmlns:sodipodi="http://sodipodi.sourceforge.net/DTD/sodipodi-0.dtd"
   xmlns:inkscape="http://www.inkscape.org/namespaces/inkscape"
   width="546.13336"
   height="546.13336"
   viewBox="0 0 512 512.00002"
   id="svg2"
   version="1.1"
   inkscape:version="0.92.0 r"
   sodipodi:docname="applications-internet.svg">
  <defs
     id="defs4">
    <filter
       inkscape:collect="always"
       style="color-interpolation-filters:sRGB"
       id="filter4152"
       x="-0.066865668"
       width="1.1337312"
       y="-0.077988401"
       height="1.1559768">
      <feGaussianBlur
         inkscape:collect="always"
         stdDeviation="12.752166"
         id="feGaussianBlur4154" />
    </filter>
  </defs>
  <sodipodi:namedview
     id="base"
     pagecolor="#9f9f9f"
     bordercolor="#666666"
     borderopacity="1.0"
     inkscape:pageopacity="0"
     inkscape:pageshadow="2"
     inkscape:zoom="0.80078125"
     inkscape:cx="256.93597"
     inkscape:cy="256"
     inkscape:document-units="px"
     inkscape:current-layer="layer1"
     showgrid="false"
     units="px"
     inkscape:showpageshadow="false"
     borderlayer="true"
     inkscape:window-width="960"
     inkscape:window-height="996"
     inkscape:window-x="720"
     inkscape:window-y="22"
     inkscape:window-maximized="0"
     showguides="false">
    <inkscape:grid
       type="xygrid"
       id="grid4136"
       originx="0"
       originy="0"
       spacingx="1"
       spacingy="1" />
    <sodipodi:guide
       position="4.9999997,59.000066"
       orientation="54,0"
       id="guide4142"
       inkscape:locked="false" />
    <sodipodi:guide
       position="4.9999997,5.0000685"
       orientation="0,54"
       id="guide4144"
       inkscape:locked="false" />
    <sodipodi:guide
       position="58.999997,5.0000685"
       orientation="-54,0"
       id="guide4146"
       inkscape:locked="false" />
    <sodipodi:guide
       position="58.999997,59.000066"
       orientation="0,-54"
       id="guide4148"
       inkscape:locked="false" />
    <sodipodi:guide
       position="0,64.000066"
       orientation="64,0"
       id="guide4150"
       inkscape:locked="false" />
    <sodipodi:guide
       position="0,6.8749996e-05"
       orientation="0,64"
       id="guide4152"
       inkscape:locked="false" />
    <sodipodi:guide
       position="63.999997,6.8749996e-05"
       orientation="-64,0"
       id="guide4154"
       inkscape:locked="false" />
    <sodipodi:guide
       position="63.999997,64.000066"
       orientation="0,-64"
       id="guide4156"
       inkscape:locked="false" />
    <sodipodi:guide
       position="12.999999,50.999944"
       orientation="38,0"
       id="guide4155"
       inkscape:locked="false" />
    <sodipodi:guide
       position="12.999999,12.999946"
       orientation="0,38"
       id="guide4157"
       inkscape:locked="false" />
    <sodipodi:guide
       position="50.999997,12.999946"
       orientation="-38,0"
       id="guide4159"
       inkscape:locked="false" />
    <sodipodi:guide
       position="50.999997,50.999944"
       orientation="0,-38"
       id="guide4161"
       inkscape:locked="false" />
  </sodipodi:namedview>
  <metadata
     id="metadata7">
    <rdf:RDF>
      <cc:Work
         rdf:about="">
        <dc:format>image/svg+xml</dc:format>
        <dc:type
           rdf:resource="http://purl.org/dc/dcmitype/StillImage" />
        <dc:title />
      </cc:Work>
    </rdf:RDF>
  </metadata>
  <g
     inkscape:label="Capa 1"
     inkscape:groupmode="layer"
     id="layer1"
     transform="translate(0,-610.5196)">
    <path
       inkscape:connector-curvature="0"
       id="path4175"
       d="m 174.41191,975.75803 -16.52401,-16.41455 -32.3216,-0.27171 -32.32159,-0.2717 V 845.33354 731.86692 H 256 418.75529 v 113.46662 113.46653 l -32.32161,0.2717 -32.32159,0.27171 -16.52402,16.41455 -16.524,16.41457 H 256 190.93592 Z"
       style="fill:#808080" />
    <path
       style="fill:#cccccc;fill-opacity:1;stroke:none;stroke-width:22.91161919"
       d="m 170.4294,731.86692 v 42.78524 h 17.11411 v -42.78524 z m 51.34236,0 v 42.78524 h 17.11412 v -42.78524 z m 51.34237,0 v 42.78524 h 17.11411 v -42.78524 z m 51.34236,0 v 42.78524 h 17.11411 v -42.78524 z"
       id="rect4144"
       inkscape:connector-curvature="0"
       sodipodi:nodetypes="cccccccccccccccccccc" />
    <path
       inkscape:connector-curvature="0"
       style="opacity:0.5;fill:#000000;fill-opacity:1;filter:url(#filter4152)"
       d="m 54.501505,674.30352 -6.5,3.0957 c -12.1375,5.7785 -18.24403,14.35863 -20.07227,28.20313 -0.66157,5.0095 -0.91451,58.73487 -0.72265,153.70117 0.28261,139.8905 0.37406,146.20928 2.16992,150.99998 4.05011,10.8045 11.02515,17.579 22.45703,21.8066 5.24273,1.9388 8.10562,2.1198 38.16797,2.4219 17.875005,0.1796 33.596045,0.5692 34.935555,0.8653 1.33951,0.2962 9.02021,6.9901 17.06835,14.8769 12.6768,12.4227 15.22533,14.4725 19.06445,15.3281 6.57505,1.4649 182.29068,1.5325 189.09961,0.072 4.91557,-1.0542 6.2373,-2.0808 19.86328,-15.4336 8.02871,-7.8678 15.6937,-14.5515 17.03321,-14.8515 1.33951,-0.3001 17.96054,-0.6914 36.93554,-0.8711 28.81917,-0.273 35.18374,-0.5927 38.65235,-1.9414 10.09438,-3.9248 16.53276,-10.7226 20.10939,-21.2285 1.587,-4.6616 1.7419,-16.18698 2.0254,-151.54495 0.2,-95.5177 -0.049,-149.17987 -0.7129,-154.20117 -1.838,-13.8976 -7.8864,-22.44328 -19.91603,-28.14258 l -6.65821,-3.15625 h -201.5 -201.499995 z m 43,65 h 158.499995 158.5 v 110.5 110.5 l -31.47656,0.2656 -31.47656,0.2637 -16.0918,15.9863 -16.0918,15.9844 H 256.0015 192.63822 l -16.09179,-15.9844 -16.0918,-15.9863 -31.47656,-0.2637 -31.476565,-0.2656 v -110.5 z"
       id="path4185-6" />
    <path
       style="fill:#ffffff;fill-opacity:1"
       d="m 49.091823,665.0356 -6.674506,3.17881 c -12.463359,5.93364 -18.733828,14.74413 -20.611152,28.96031 -0.67933,5.14399 -0.939068,60.31174 -0.742058,157.82762 0.290198,143.64618 0.384105,150.13456 2.228179,155.05386 4.158845,11.0946 11.321146,18.051 23.059941,22.3921 5.383483,1.9909 8.323232,2.1768 39.192675,2.4869 18.354898,0.1845 34.497998,0.5844 35.873478,0.8886 1.37546,0.3041 9.26238,7.1777 17.52659,15.2763 13.01714,12.7562 15.63409,14.8611 19.57628,15.7396 6.75157,1.5042 187.18468,1.5737 194.17642,0.074 5.04754,-1.0825 6.40475,-2.1366 20.39655,-15.8479 8.24426,-8.079 16.11504,-14.9423 17.49051,-15.2503 1.37547,-0.3082 18.44272,-0.71 37.92715,-0.8945 29.59289,-0.2803 36.12833,-0.6086 39.69006,-1.9935 10.36539,-4.0302 16.97662,-11.0105 20.64925,-21.7985 1.62959,-4.7867 1.78871,-16.62144 2.07977,-155.61343 0.20541,-98.08209 -0.0501,-153.18495 -0.73203,-158.34106 -1.88731,-14.27071 -8.0981,-23.04582 -20.45069,-28.89813 l -6.83697,-3.24099 H 256.00155 49.091823 Z m 44.154433,66.74507 H 256.00155 418.75684 V 845.2473 958.71392 l -32.32163,0.27276 -32.32161,0.27075 -16.52383,16.41552 -16.52381,16.41351 H 256.00155 190.93714 L 174.41332,975.67295 157.8895,959.25743 125.56788,958.98668 93.246256,958.71392 V 845.2473 Z"
       id="path4185"
       inkscape:connector-curvature="0" />
  </g>
</svg>
