<?xml version="1.0" encoding="UTF-8" standalone="no"?>
<!-- Created with Inkscape (http://www.inkscape.org/) -->

<svg
   xmlns:dc="http://purl.org/dc/elements/1.1/"
   xmlns:cc="http://creativecommons.org/ns#"
   xmlns:rdf="http://www.w3.org/1999/02/22-rdf-syntax-ns#"
   xmlns:svg="http://www.w3.org/2000/svg"
   xmlns="http://www.w3.org/2000/svg"
   xmlns:sodipodi="http://sodipodi.sourceforge.net/DTD/sodipodi-0.dtd"
   xmlns:inkscape="http://www.inkscape.org/namespaces/inkscape"
   width="25.6"
   height="25.6"
   id="svg2"
   version="1.1"
   inkscape:version="0.92.0 r"
   sodipodi:docname="emblem-web.svg"
   viewBox="0 0 24 24">
  <defs
     id="defs4" />
  <sodipodi:namedview
     id="base"
     pagecolor="#ffffff"
     bordercolor="#666666"
     borderopacity="1.0"
     inkscape:pageopacity="0.0"
     inkscape:pageshadow="2"
     inkscape:zoom="8.4963768"
     inkscape:cx="11.15483"
     inkscape:cy="17.528054"
     inkscape:document-units="px"
     inkscape:current-layer="layer1"
     showgrid="false"
     inkscape:window-width="1680"
     inkscape:window-height="996"
     inkscape:window-x="0"
     inkscape:window-y="22"
     inkscape:window-maximized="1"
     showguides="true"
     inkscape:guide-bbox="true">
    <sodipodi:guide
       position="4.4999999,19.500017"
       orientation="15,0"
       id="guide3264"
       inkscape:locked="false" />
    <sodipodi:guide
       position="4.4999999,4.5000173"
       orientation="0,15"
       id="guide3266"
       inkscape:locked="false" />
    <sodipodi:guide
       position="19.5,4.5000173"
       orientation="-15,0"
       id="guide3268"
       inkscape:locked="false" />
    <sodipodi:guide
       position="19.5,19.500017"
       orientation="0,-15"
       id="guide3270"
       inkscape:locked="false" />
  </sodipodi:namedview>
  <metadata
     id="metadata7">
    <rdf:RDF>
      <cc:Work
         rdf:about="">
        <dc:format>image/svg+xml</dc:format>
        <dc:type
           rdf:resource="http://purl.org/dc/dcmitype/StillImage" />
        <dc:title />
      </cc:Work>
    </rdf:RDF>
  </metadata>
  <g
     inkscape:label="Capa 1"
     inkscape:groupmode="layer"
     id="layer1"
     transform="translate(0,-1028.3622)">
    <rect
       style="fill:none;stroke:none"
       id="rect3260"
       width="15"
       height="15"
       x="4.5"
       y="1032.8622" />
    <rect
       ry="2"
       y="1043.8622"
       x="10"
       height="4"
       width="4"
       id="rect3292"
       style="fill:none;fill-opacity:1;fill-rule:evenodd;stroke:none" />
    <path
       style="fill:#808080;fill-opacity:1;fill-rule:evenodd;stroke:none"
       d="m 12,4.5 c -4.155,0 -7.5,3.345 -7.5,7.5 0,4.155 3.345,7.5 7.5,7.5 4.155,0 7.5,-3.345 7.5,-7.5 0,-4.155 -3.345,-7.5 -7.5,-7.5 z m 0,2 c 3.047,0 5.5,2.453 5.5,5.5 0,3.047 -2.453,5.5 -5.5,5.5 C 8.953,17.5 6.5,15.047 6.5,12 6.5,8.953 8.953,6.5 12,6.5 Z"
       transform="translate(0,1028.3622)"
       id="rect3272"
       inkscape:connector-curvature="0" />
    <rect
       style="fill:#808080;fill-opacity:1;fill-rule:evenodd;stroke:none"
       id="rect3279"
       width="12"
       height="1"
       x="6"
       y="1039.8622"
       ry="0" />
    <rect
       ry="0"
       y="11.5"
       x="-1046.3622"
       height="1"
       width="12"
       id="rect3281"
       style="fill:#808080;fill-opacity:1;fill-rule:evenodd;stroke:none"
       transform="rotate(-90)" />
    <rect
       ry="1"
       y="1045.8622"
       x="11"
       height="2"
       width="2"
       id="rect3274"
       style="fill:none;fill-opacity:1;fill-rule:evenodd;stroke:none" />
    <rect
       style="fill:none;fill-opacity:1;fill-rule:evenodd;stroke:none"
       id="rect3283"
       width="0.99999976"
       height="0.99999976"
       x="11.5"
       y="1046.8619"
       ry="0.49999988" />
    <rect
       ry="2"
       y="1038.3622"
       x="4.5"
       height="4"
       width="4"
       id="rect3296"
       style="fill:none;fill-opacity:1;fill-rule:evenodd;stroke:none" />
    <rect
       style="fill:none;fill-opacity:1;fill-rule:evenodd;stroke:none"
       id="rect3300"
       width="4"
       height="4"
       x="15.5"
       y="1038.3622"
       ry="2" />
    <path
       style="fill:#808080;fill-opacity:1;fill-rule:evenodd;stroke:none"
       d="m 8.6035155,1036.036 c 1.0203312,0.5192 2.1688085,0.8262 3.3964845,0.8262 1.227676,0 2.376153,-0.307 3.396484,-0.8262 -0.31154,-0.2446 -0.65081,-0.4535 -1.011718,-0.6269 -0.737722,0.2908 -1.540729,0.4531 -2.384766,0.4531 -0.844037,0 -1.647044,-0.1623 -2.3847657,-0.4531 -0.3609081,0.1734 -0.700178,0.3823 -1.0117188,0.6269 z"
       id="path3330"
       inkscape:connector-curvature="0" />
    <rect
       style="fill:none;fill-opacity:1;fill-rule:evenodd;stroke:none"
       id="rect3290"
       width="4"
       height="4"
       x="10"
       y="1032.8622"
       ry="2" />
    <path
       style="fill:#808080;fill-opacity:1;fill-rule:evenodd;stroke:none"
       d="m 8.6034999,1044.6884 c 1.0203,-0.5192 2.1688001,-0.8262 3.3965001,-0.8262 1.2277,0 2.3762,0.307 3.3965,0.8262 -0.3116,0.2446 -0.6508,0.4535 -1.0117,0.6269 -0.7378,-0.2908 -1.5408,-0.4531 -2.3848,-0.4531 -0.844,0 -1.647,0.1623 -2.3848001,0.4531 -0.3609,-0.1734 -0.7001,-0.3823 -1.0117,-0.6269 z"
       id="path3336"
       inkscape:connector-curvature="0" />
  </g>
</svg>
